<?xml version="1.0" encoding="utf-8" standalone="no"?>
<!DOCTYPE svg PUBLIC "-//W3C//DTD SVG 1.1//EN"
  "http://www.w3.org/Graphics/SVG/1.1/DTD/svg11.dtd">
<svg xmlns:xlink="http://www.w3.org/1999/xlink" width="720pt" height="432pt" viewBox="0 0 720 432" xmlns="http://www.w3.org/2000/svg" version="1.1">
 <metadata>
  <rdf:RDF xmlns:dc="http://purl.org/dc/elements/1.1/" xmlns:cc="http://creativecommons.org/ns#" xmlns:rdf="http://www.w3.org/1999/02/22-rdf-syntax-ns#">
   <cc:Work>
    <dc:type rdf:resource="http://purl.org/dc/dcmitype/StillImage"/>
    <dc:date>2024-11-26T10:17:56.865163</dc:date>
    <dc:format>image/svg+xml</dc:format>
    <dc:creator>
     <cc:Agent>
      <dc:title>Matplotlib v3.6.2, https://matplotlib.org/</dc:title>
     </cc:Agent>
    </dc:creator>
   </cc:Work>
  </rdf:RDF>
 </metadata>
 <defs>
  <style type="text/css">*{stroke-linejoin: round; stroke-linecap: butt}</style>
 </defs>
 <g id="figure_1">
  <g id="patch_1">
   <path d="M 0 432 
L 720 432 
L 720 0 
L 0 0 
z
" style="fill: #ffffff"/>
  </g>
  <g id="axes_1">
   <g id="patch_2">
    <path d="M 47.72 390.04 
L 709.2 390.04 
L 709.2 26.88 
L 47.72 26.88 
z
" style="fill: #ffffff"/>
   </g>
   <g id="matplotlib.axis_1">
    <g id="xtick_1">
     <g id="line2d_1">
      <path d="M 62.368159 390.04 
L 62.368159 26.88 
" clip-path="url(#p4cc7642f8e)" style="fill: none; stroke: #b0b0b0; stroke-width: 0.8; stroke-linecap: square"/>
     </g>
     <g id="line2d_2">
      <defs>
       <path id="me1bdb087e6" d="M 0 0 
L 0 3.5 
" style="stroke: #000000; stroke-width: 0.8"/>
      </defs>
      <g>
       <use xlink:href="#me1bdb087e6" x="62.368159" y="390.04" style="stroke: #000000; stroke-width: 0.8"/>
      </g>
     </g>
     <g id="text_1">
      <!-- 0 -->
      <g transform="translate(59.186909 404.638438) scale(0.1 -0.1)">
       <defs>
        <path id="DejaVuSans-30" d="M 2034 4250 
Q 1547 4250 1301 3770 
Q 1056 3291 1056 2328 
Q 1056 1369 1301 889 
Q 1547 409 2034 409 
Q 2525 409 2770 889 
Q 3016 1369 3016 2328 
Q 3016 3291 2770 3770 
Q 2525 4250 2034 4250 
z
M 2034 4750 
Q 2819 4750 3233 4129 
Q 3647 3509 3647 2328 
Q 3647 1150 3233 529 
Q 2819 -91 2034 -91 
Q 1250 -91 836 529 
Q 422 1150 422 2328 
Q 422 3509 836 4129 
Q 1250 4750 2034 4750 
z
" transform="scale(0.015625)"/>
       </defs>
       <use xlink:href="#DejaVuSans-30"/>
      </g>
     </g>
    </g>
    <g id="xtick_2">
     <g id="line2d_3">
      <path d="M 139.46373 390.04 
L 139.46373 26.88 
" clip-path="url(#p4cc7642f8e)" style="fill: none; stroke: #b0b0b0; stroke-width: 0.8; stroke-linecap: square"/>
     </g>
     <g id="line2d_4">
      <g>
       <use xlink:href="#me1bdb087e6" x="139.46373" y="390.04" style="stroke: #000000; stroke-width: 0.8"/>
      </g>
     </g>
     <g id="text_2">
      <!-- 5 -->
      <g transform="translate(136.28248 404.638438) scale(0.1 -0.1)">
       <defs>
        <path id="DejaVuSans-35" d="M 691 4666 
L 3169 4666 
L 3169 4134 
L 1269 4134 
L 1269 2991 
Q 1406 3038 1543 3061 
Q 1681 3084 1819 3084 
Q 2600 3084 3056 2656 
Q 3513 2228 3513 1497 
Q 3513 744 3044 326 
Q 2575 -91 1722 -91 
Q 1428 -91 1123 -41 
Q 819 9 494 109 
L 494 744 
Q 775 591 1075 516 
Q 1375 441 1709 441 
Q 2250 441 2565 725 
Q 2881 1009 2881 1497 
Q 2881 1984 2565 2268 
Q 2250 2553 1709 2553 
Q 1456 2553 1204 2497 
Q 953 2441 691 2322 
L 691 4666 
z
" transform="scale(0.015625)"/>
       </defs>
       <use xlink:href="#DejaVuSans-35"/>
      </g>
     </g>
    </g>
    <g id="xtick_3">
     <g id="line2d_5">
      <path d="M 216.559301 390.04 
L 216.559301 26.88 
" clip-path="url(#p4cc7642f8e)" style="fill: none; stroke: #b0b0b0; stroke-width: 0.8; stroke-linecap: square"/>
     </g>
     <g id="line2d_6">
      <g>
       <use xlink:href="#me1bdb087e6" x="216.559301" y="390.04" style="stroke: #000000; stroke-width: 0.8"/>
      </g>
     </g>
     <g id="text_3">
      <!-- 10 -->
      <g transform="translate(210.196801 404.638438) scale(0.1 -0.1)">
       <defs>
        <path id="DejaVuSans-31" d="M 794 531 
L 1825 531 
L 1825 4091 
L 703 3866 
L 703 4441 
L 1819 4666 
L 2450 4666 
L 2450 531 
L 3481 531 
L 3481 0 
L 794 0 
L 794 531 
z
" transform="scale(0.015625)"/>
       </defs>
       <use xlink:href="#DejaVuSans-31"/>
       <use xlink:href="#DejaVuSans-30" x="63.623047"/>
      </g>
     </g>
    </g>
    <g id="xtick_4">
     <g id="line2d_7">
      <path d="M 293.654872 390.04 
L 293.654872 26.88 
" clip-path="url(#p4cc7642f8e)" style="fill: none; stroke: #b0b0b0; stroke-width: 0.8; stroke-linecap: square"/>
     </g>
     <g id="line2d_8">
      <g>
       <use xlink:href="#me1bdb087e6" x="293.654872" y="390.04" style="stroke: #000000; stroke-width: 0.8"/>
      </g>
     </g>
     <g id="text_4">
      <!-- 15 -->
      <g transform="translate(287.292372 404.638438) scale(0.1 -0.1)">
       <use xlink:href="#DejaVuSans-31"/>
       <use xlink:href="#DejaVuSans-35" x="63.623047"/>
      </g>
     </g>
    </g>
    <g id="xtick_5">
     <g id="line2d_9">
      <path d="M 370.750443 390.04 
L 370.750443 26.88 
" clip-path="url(#p4cc7642f8e)" style="fill: none; stroke: #b0b0b0; stroke-width: 0.8; stroke-linecap: square"/>
     </g>
     <g id="line2d_10">
      <g>
       <use xlink:href="#me1bdb087e6" x="370.750443" y="390.04" style="stroke: #000000; stroke-width: 0.8"/>
      </g>
     </g>
     <g id="text_5">
      <!-- 20 -->
      <g transform="translate(364.387943 404.638438) scale(0.1 -0.1)">
       <defs>
        <path id="DejaVuSans-32" d="M 1228 531 
L 3431 531 
L 3431 0 
L 469 0 
L 469 531 
Q 828 903 1448 1529 
Q 2069 2156 2228 2338 
Q 2531 2678 2651 2914 
Q 2772 3150 2772 3378 
Q 2772 3750 2511 3984 
Q 2250 4219 1831 4219 
Q 1534 4219 1204 4116 
Q 875 4013 500 3803 
L 500 4441 
Q 881 4594 1212 4672 
Q 1544 4750 1819 4750 
Q 2544 4750 2975 4387 
Q 3406 4025 3406 3419 
Q 3406 3131 3298 2873 
Q 3191 2616 2906 2266 
Q 2828 2175 2409 1742 
Q 1991 1309 1228 531 
z
" transform="scale(0.015625)"/>
       </defs>
       <use xlink:href="#DejaVuSans-32"/>
       <use xlink:href="#DejaVuSans-30" x="63.623047"/>
      </g>
     </g>
    </g>
    <g id="xtick_6">
     <g id="line2d_11">
      <path d="M 447.846014 390.04 
L 447.846014 26.88 
" clip-path="url(#p4cc7642f8e)" style="fill: none; stroke: #b0b0b0; stroke-width: 0.8; stroke-linecap: square"/>
     </g>
     <g id="line2d_12">
      <g>
       <use xlink:href="#me1bdb087e6" x="447.846014" y="390.04" style="stroke: #000000; stroke-width: 0.8"/>
      </g>
     </g>
     <g id="text_6">
      <!-- 25 -->
      <g transform="translate(441.483514 404.638438) scale(0.1 -0.1)">
       <use xlink:href="#DejaVuSans-32"/>
       <use xlink:href="#DejaVuSans-35" x="63.623047"/>
      </g>
     </g>
    </g>
    <g id="xtick_7">
     <g id="line2d_13">
      <path d="M 524.941585 390.04 
L 524.941585 26.88 
" clip-path="url(#p4cc7642f8e)" style="fill: none; stroke: #b0b0b0; stroke-width: 0.8; stroke-linecap: square"/>
     </g>
     <g id="line2d_14">
      <g>
       <use xlink:href="#me1bdb087e6" x="524.941585" y="390.04" style="stroke: #000000; stroke-width: 0.8"/>
      </g>
     </g>
     <g id="text_7">
      <!-- 30 -->
      <g transform="translate(518.579085 404.638438) scale(0.1 -0.1)">
       <defs>
        <path id="DejaVuSans-33" d="M 2597 2516 
Q 3050 2419 3304 2112 
Q 3559 1806 3559 1356 
Q 3559 666 3084 287 
Q 2609 -91 1734 -91 
Q 1441 -91 1130 -33 
Q 819 25 488 141 
L 488 750 
Q 750 597 1062 519 
Q 1375 441 1716 441 
Q 2309 441 2620 675 
Q 2931 909 2931 1356 
Q 2931 1769 2642 2001 
Q 2353 2234 1838 2234 
L 1294 2234 
L 1294 2753 
L 1863 2753 
Q 2328 2753 2575 2939 
Q 2822 3125 2822 3475 
Q 2822 3834 2567 4026 
Q 2313 4219 1838 4219 
Q 1578 4219 1281 4162 
Q 984 4106 628 3988 
L 628 4550 
Q 988 4650 1302 4700 
Q 1616 4750 1894 4750 
Q 2613 4750 3031 4423 
Q 3450 4097 3450 3541 
Q 3450 3153 3228 2886 
Q 3006 2619 2597 2516 
z
" transform="scale(0.015625)"/>
       </defs>
       <use xlink:href="#DejaVuSans-33"/>
       <use xlink:href="#DejaVuSans-30" x="63.623047"/>
      </g>
     </g>
    </g>
    <g id="xtick_8">
     <g id="line2d_15">
      <path d="M 602.037156 390.04 
L 602.037156 26.88 
" clip-path="url(#p4cc7642f8e)" style="fill: none; stroke: #b0b0b0; stroke-width: 0.8; stroke-linecap: square"/>
     </g>
     <g id="line2d_16">
      <g>
       <use xlink:href="#me1bdb087e6" x="602.037156" y="390.04" style="stroke: #000000; stroke-width: 0.8"/>
      </g>
     </g>
     <g id="text_8">
      <!-- 35 -->
      <g transform="translate(595.674656 404.638438) scale(0.1 -0.1)">
       <use xlink:href="#DejaVuSans-33"/>
       <use xlink:href="#DejaVuSans-35" x="63.623047"/>
      </g>
     </g>
    </g>
    <g id="xtick_9">
     <g id="line2d_17">
      <path d="M 679.132727 390.04 
L 679.132727 26.88 
" clip-path="url(#p4cc7642f8e)" style="fill: none; stroke: #b0b0b0; stroke-width: 0.8; stroke-linecap: square"/>
     </g>
     <g id="line2d_18">
      <g>
       <use xlink:href="#me1bdb087e6" x="679.132727" y="390.04" style="stroke: #000000; stroke-width: 0.8"/>
      </g>
     </g>
     <g id="text_9">
      <!-- 40 -->
      <g transform="translate(672.770227 404.638438) scale(0.1 -0.1)">
       <defs>
        <path id="DejaVuSans-34" d="M 2419 4116 
L 825 1625 
L 2419 1625 
L 2419 4116 
z
M 2253 4666 
L 3047 4666 
L 3047 1625 
L 3713 1625 
L 3713 1100 
L 3047 1100 
L 3047 0 
L 2419 0 
L 2419 1100 
L 313 1100 
L 313 1709 
L 2253 4666 
z
" transform="scale(0.015625)"/>
       </defs>
       <use xlink:href="#DejaVuSans-34"/>
       <use xlink:href="#DejaVuSans-30" x="63.623047"/>
      </g>
     </g>
    </g>
    <g id="text_10">
     <!-- Epoch -->
     <g transform="translate(363.149063 418.316562) scale(0.1 -0.1)">
      <defs>
       <path id="DejaVuSans-45" d="M 628 4666 
L 3578 4666 
L 3578 4134 
L 1259 4134 
L 1259 2753 
L 3481 2753 
L 3481 2222 
L 1259 2222 
L 1259 531 
L 3634 531 
L 3634 0 
L 628 0 
L 628 4666 
z
" transform="scale(0.015625)"/>
       <path id="DejaVuSans-70" d="M 1159 525 
L 1159 -1331 
L 581 -1331 
L 581 3500 
L 1159 3500 
L 1159 2969 
Q 1341 3281 1617 3432 
Q 1894 3584 2278 3584 
Q 2916 3584 3314 3078 
Q 3713 2572 3713 1747 
Q 3713 922 3314 415 
Q 2916 -91 2278 -91 
Q 1894 -91 1617 61 
Q 1341 213 1159 525 
z
M 3116 1747 
Q 3116 2381 2855 2742 
Q 2594 3103 2138 3103 
Q 1681 3103 1420 2742 
Q 1159 2381 1159 1747 
Q 1159 1113 1420 752 
Q 1681 391 2138 391 
Q 2594 391 2855 752 
Q 3116 1113 3116 1747 
z
" transform="scale(0.015625)"/>
       <path id="DejaVuSans-6f" d="M 1959 3097 
Q 1497 3097 1228 2736 
Q 959 2375 959 1747 
Q 959 1119 1226 758 
Q 1494 397 1959 397 
Q 2419 397 2687 759 
Q 2956 1122 2956 1747 
Q 2956 2369 2687 2733 
Q 2419 3097 1959 3097 
z
M 1959 3584 
Q 2709 3584 3137 3096 
Q 3566 2609 3566 1747 
Q 3566 888 3137 398 
Q 2709 -91 1959 -91 
Q 1206 -91 779 398 
Q 353 888 353 1747 
Q 353 2609 779 3096 
Q 1206 3584 1959 3584 
z
" transform="scale(0.015625)"/>
       <path id="DejaVuSans-63" d="M 3122 3366 
L 3122 2828 
Q 2878 2963 2633 3030 
Q 2388 3097 2138 3097 
Q 1578 3097 1268 2742 
Q 959 2388 959 1747 
Q 959 1106 1268 751 
Q 1578 397 2138 397 
Q 2388 397 2633 464 
Q 2878 531 3122 666 
L 3122 134 
Q 2881 22 2623 -34 
Q 2366 -91 2075 -91 
Q 1284 -91 818 406 
Q 353 903 353 1747 
Q 353 2603 823 3093 
Q 1294 3584 2113 3584 
Q 2378 3584 2631 3529 
Q 2884 3475 3122 3366 
z
" transform="scale(0.015625)"/>
       <path id="DejaVuSans-68" d="M 3513 2113 
L 3513 0 
L 2938 0 
L 2938 2094 
Q 2938 2591 2744 2837 
Q 2550 3084 2163 3084 
Q 1697 3084 1428 2787 
Q 1159 2491 1159 1978 
L 1159 0 
L 581 0 
L 581 4863 
L 1159 4863 
L 1159 2956 
Q 1366 3272 1645 3428 
Q 1925 3584 2291 3584 
Q 2894 3584 3203 3211 
Q 3513 2838 3513 2113 
z
" transform="scale(0.015625)"/>
      </defs>
      <use xlink:href="#DejaVuSans-45"/>
      <use xlink:href="#DejaVuSans-70" x="63.183594"/>
      <use xlink:href="#DejaVuSans-6f" x="126.660156"/>
      <use xlink:href="#DejaVuSans-63" x="187.841797"/>
      <use xlink:href="#DejaVuSans-68" x="242.822266"/>
     </g>
    </g>
   </g>
   <g id="matplotlib.axis_2">
    <g id="ytick_1">
     <g id="line2d_19">
      <path d="M 47.72 339.481851 
L 709.2 339.481851 
" clip-path="url(#p4cc7642f8e)" style="fill: none; stroke: #b0b0b0; stroke-width: 0.8; stroke-linecap: square"/>
     </g>
     <g id="line2d_20">
      <defs>
       <path id="m3d0585506a" d="M 0 0 
L -3.5 0 
" style="stroke: #000000; stroke-width: 0.8"/>
      </defs>
      <g>
       <use xlink:href="#m3d0585506a" x="47.72" y="339.481851" style="stroke: #000000; stroke-width: 0.8"/>
      </g>
     </g>
     <g id="text_11">
      <!-- 0.1 -->
      <g transform="translate(24.816875 343.28107) scale(0.1 -0.1)">
       <defs>
        <path id="DejaVuSans-2e" d="M 684 794 
L 1344 794 
L 1344 0 
L 684 0 
L 684 794 
z
" transform="scale(0.015625)"/>
       </defs>
       <use xlink:href="#DejaVuSans-30"/>
       <use xlink:href="#DejaVuSans-2e" x="63.623047"/>
       <use xlink:href="#DejaVuSans-31" x="95.410156"/>
      </g>
     </g>
    </g>
    <g id="ytick_2">
     <g id="line2d_21">
      <path d="M 47.72 277.79548 
L 709.2 277.79548 
" clip-path="url(#p4cc7642f8e)" style="fill: none; stroke: #b0b0b0; stroke-width: 0.8; stroke-linecap: square"/>
     </g>
     <g id="line2d_22">
      <g>
       <use xlink:href="#m3d0585506a" x="47.72" y="277.79548" style="stroke: #000000; stroke-width: 0.8"/>
      </g>
     </g>
     <g id="text_12">
      <!-- 0.2 -->
      <g transform="translate(24.816875 281.594699) scale(0.1 -0.1)">
       <use xlink:href="#DejaVuSans-30"/>
       <use xlink:href="#DejaVuSans-2e" x="63.623047"/>
       <use xlink:href="#DejaVuSans-32" x="95.410156"/>
      </g>
     </g>
    </g>
    <g id="ytick_3">
     <g id="line2d_23">
      <path d="M 47.72 216.10911 
L 709.2 216.10911 
" clip-path="url(#p4cc7642f8e)" style="fill: none; stroke: #b0b0b0; stroke-width: 0.8; stroke-linecap: square"/>
     </g>
     <g id="line2d_24">
      <g>
       <use xlink:href="#m3d0585506a" x="47.72" y="216.10911" style="stroke: #000000; stroke-width: 0.8"/>
      </g>
     </g>
     <g id="text_13">
      <!-- 0.3 -->
      <g transform="translate(24.816875 219.908329) scale(0.1 -0.1)">
       <use xlink:href="#DejaVuSans-30"/>
       <use xlink:href="#DejaVuSans-2e" x="63.623047"/>
       <use xlink:href="#DejaVuSans-33" x="95.410156"/>
      </g>
     </g>
    </g>
    <g id="ytick_4">
     <g id="line2d_25">
      <path d="M 47.72 154.42274 
L 709.2 154.42274 
" clip-path="url(#p4cc7642f8e)" style="fill: none; stroke: #b0b0b0; stroke-width: 0.8; stroke-linecap: square"/>
     </g>
     <g id="line2d_26">
      <g>
       <use xlink:href="#m3d0585506a" x="47.72" y="154.42274" style="stroke: #000000; stroke-width: 0.8"/>
      </g>
     </g>
     <g id="text_14">
      <!-- 0.4 -->
      <g transform="translate(24.816875 158.221958) scale(0.1 -0.1)">
       <use xlink:href="#DejaVuSans-30"/>
       <use xlink:href="#DejaVuSans-2e" x="63.623047"/>
       <use xlink:href="#DejaVuSans-34" x="95.410156"/>
      </g>
     </g>
    </g>
    <g id="ytick_5">
     <g id="line2d_27">
      <path d="M 47.72 92.736369 
L 709.2 92.736369 
" clip-path="url(#p4cc7642f8e)" style="fill: none; stroke: #b0b0b0; stroke-width: 0.8; stroke-linecap: square"/>
     </g>
     <g id="line2d_28">
      <g>
       <use xlink:href="#m3d0585506a" x="47.72" y="92.736369" style="stroke: #000000; stroke-width: 0.8"/>
      </g>
     </g>
     <g id="text_15">
      <!-- 0.5 -->
      <g transform="translate(24.816875 96.535588) scale(0.1 -0.1)">
       <use xlink:href="#DejaVuSans-30"/>
       <use xlink:href="#DejaVuSans-2e" x="63.623047"/>
       <use xlink:href="#DejaVuSans-35" x="95.410156"/>
      </g>
     </g>
    </g>
    <g id="ytick_6">
     <g id="line2d_29">
      <path d="M 47.72 31.049999 
L 709.2 31.049999 
" clip-path="url(#p4cc7642f8e)" style="fill: none; stroke: #b0b0b0; stroke-width: 0.8; stroke-linecap: square"/>
     </g>
     <g id="line2d_30">
      <g>
       <use xlink:href="#m3d0585506a" x="47.72" y="31.049999" style="stroke: #000000; stroke-width: 0.8"/>
      </g>
     </g>
     <g id="text_16">
      <!-- 0.6 -->
      <g transform="translate(24.816875 34.849217) scale(0.1 -0.1)">
       <defs>
        <path id="DejaVuSans-36" d="M 2113 2584 
Q 1688 2584 1439 2293 
Q 1191 2003 1191 1497 
Q 1191 994 1439 701 
Q 1688 409 2113 409 
Q 2538 409 2786 701 
Q 3034 994 3034 1497 
Q 3034 2003 2786 2293 
Q 2538 2584 2113 2584 
z
M 3366 4563 
L 3366 3988 
Q 3128 4100 2886 4159 
Q 2644 4219 2406 4219 
Q 1781 4219 1451 3797 
Q 1122 3375 1075 2522 
Q 1259 2794 1537 2939 
Q 1816 3084 2150 3084 
Q 2853 3084 3261 2657 
Q 3669 2231 3669 1497 
Q 3669 778 3244 343 
Q 2819 -91 2113 -91 
Q 1303 -91 875 529 
Q 447 1150 447 2328 
Q 447 3434 972 4092 
Q 1497 4750 2381 4750 
Q 2619 4750 2861 4703 
Q 3103 4656 3366 4563 
z
" transform="scale(0.015625)"/>
       </defs>
       <use xlink:href="#DejaVuSans-30"/>
       <use xlink:href="#DejaVuSans-2e" x="63.623047"/>
       <use xlink:href="#DejaVuSans-36" x="95.410156"/>
      </g>
     </g>
    </g>
    <g id="text_17">
     <!-- Reconstruction Error -->
     <g transform="translate(18.737187 259.652969) rotate(-90) scale(0.1 -0.1)">
      <defs>
       <path id="DejaVuSans-52" d="M 2841 2188 
Q 3044 2119 3236 1894 
Q 3428 1669 3622 1275 
L 4263 0 
L 3584 0 
L 2988 1197 
Q 2756 1666 2539 1819 
Q 2322 1972 1947 1972 
L 1259 1972 
L 1259 0 
L 628 0 
L 628 4666 
L 2053 4666 
Q 2853 4666 3247 4331 
Q 3641 3997 3641 3322 
Q 3641 2881 3436 2590 
Q 3231 2300 2841 2188 
z
M 1259 4147 
L 1259 2491 
L 2053 2491 
Q 2509 2491 2742 2702 
Q 2975 2913 2975 3322 
Q 2975 3731 2742 3939 
Q 2509 4147 2053 4147 
L 1259 4147 
z
" transform="scale(0.015625)"/>
       <path id="DejaVuSans-65" d="M 3597 1894 
L 3597 1613 
L 953 1613 
Q 991 1019 1311 708 
Q 1631 397 2203 397 
Q 2534 397 2845 478 
Q 3156 559 3463 722 
L 3463 178 
Q 3153 47 2828 -22 
Q 2503 -91 2169 -91 
Q 1331 -91 842 396 
Q 353 884 353 1716 
Q 353 2575 817 3079 
Q 1281 3584 2069 3584 
Q 2775 3584 3186 3129 
Q 3597 2675 3597 1894 
z
M 3022 2063 
Q 3016 2534 2758 2815 
Q 2500 3097 2075 3097 
Q 1594 3097 1305 2825 
Q 1016 2553 972 2059 
L 3022 2063 
z
" transform="scale(0.015625)"/>
       <path id="DejaVuSans-6e" d="M 3513 2113 
L 3513 0 
L 2938 0 
L 2938 2094 
Q 2938 2591 2744 2837 
Q 2550 3084 2163 3084 
Q 1697 3084 1428 2787 
Q 1159 2491 1159 1978 
L 1159 0 
L 581 0 
L 581 3500 
L 1159 3500 
L 1159 2956 
Q 1366 3272 1645 3428 
Q 1925 3584 2291 3584 
Q 2894 3584 3203 3211 
Q 3513 2838 3513 2113 
z
" transform="scale(0.015625)"/>
       <path id="DejaVuSans-73" d="M 2834 3397 
L 2834 2853 
Q 2591 2978 2328 3040 
Q 2066 3103 1784 3103 
Q 1356 3103 1142 2972 
Q 928 2841 928 2578 
Q 928 2378 1081 2264 
Q 1234 2150 1697 2047 
L 1894 2003 
Q 2506 1872 2764 1633 
Q 3022 1394 3022 966 
Q 3022 478 2636 193 
Q 2250 -91 1575 -91 
Q 1294 -91 989 -36 
Q 684 19 347 128 
L 347 722 
Q 666 556 975 473 
Q 1284 391 1588 391 
Q 1994 391 2212 530 
Q 2431 669 2431 922 
Q 2431 1156 2273 1281 
Q 2116 1406 1581 1522 
L 1381 1569 
Q 847 1681 609 1914 
Q 372 2147 372 2553 
Q 372 3047 722 3315 
Q 1072 3584 1716 3584 
Q 2034 3584 2315 3537 
Q 2597 3491 2834 3397 
z
" transform="scale(0.015625)"/>
       <path id="DejaVuSans-74" d="M 1172 4494 
L 1172 3500 
L 2356 3500 
L 2356 3053 
L 1172 3053 
L 1172 1153 
Q 1172 725 1289 603 
Q 1406 481 1766 481 
L 2356 481 
L 2356 0 
L 1766 0 
Q 1100 0 847 248 
Q 594 497 594 1153 
L 594 3053 
L 172 3053 
L 172 3500 
L 594 3500 
L 594 4494 
L 1172 4494 
z
" transform="scale(0.015625)"/>
       <path id="DejaVuSans-72" d="M 2631 2963 
Q 2534 3019 2420 3045 
Q 2306 3072 2169 3072 
Q 1681 3072 1420 2755 
Q 1159 2438 1159 1844 
L 1159 0 
L 581 0 
L 581 3500 
L 1159 3500 
L 1159 2956 
Q 1341 3275 1631 3429 
Q 1922 3584 2338 3584 
Q 2397 3584 2469 3576 
Q 2541 3569 2628 3553 
L 2631 2963 
z
" transform="scale(0.015625)"/>
       <path id="DejaVuSans-75" d="M 544 1381 
L 544 3500 
L 1119 3500 
L 1119 1403 
Q 1119 906 1312 657 
Q 1506 409 1894 409 
Q 2359 409 2629 706 
Q 2900 1003 2900 1516 
L 2900 3500 
L 3475 3500 
L 3475 0 
L 2900 0 
L 2900 538 
Q 2691 219 2414 64 
Q 2138 -91 1772 -91 
Q 1169 -91 856 284 
Q 544 659 544 1381 
z
M 1991 3584 
L 1991 3584 
z
" transform="scale(0.015625)"/>
       <path id="DejaVuSans-69" d="M 603 3500 
L 1178 3500 
L 1178 0 
L 603 0 
L 603 3500 
z
M 603 4863 
L 1178 4863 
L 1178 4134 
L 603 4134 
L 603 4863 
z
" transform="scale(0.015625)"/>
       <path id="DejaVuSans-20" transform="scale(0.015625)"/>
      </defs>
      <use xlink:href="#DejaVuSans-52"/>
      <use xlink:href="#DejaVuSans-65" x="64.982422"/>
      <use xlink:href="#DejaVuSans-63" x="126.505859"/>
      <use xlink:href="#DejaVuSans-6f" x="181.486328"/>
      <use xlink:href="#DejaVuSans-6e" x="242.667969"/>
      <use xlink:href="#DejaVuSans-73" x="306.046875"/>
      <use xlink:href="#DejaVuSans-74" x="358.146484"/>
      <use xlink:href="#DejaVuSans-72" x="397.355469"/>
      <use xlink:href="#DejaVuSans-75" x="438.46875"/>
      <use xlink:href="#DejaVuSans-63" x="501.847656"/>
      <use xlink:href="#DejaVuSans-74" x="556.828125"/>
      <use xlink:href="#DejaVuSans-69" x="596.037109"/>
      <use xlink:href="#DejaVuSans-6f" x="623.820312"/>
      <use xlink:href="#DejaVuSans-6e" x="685.001953"/>
      <use xlink:href="#DejaVuSans-20" x="748.380859"/>
      <use xlink:href="#DejaVuSans-45" x="780.167969"/>
      <use xlink:href="#DejaVuSans-72" x="843.351562"/>
      <use xlink:href="#DejaVuSans-72" x="882.714844"/>
      <use xlink:href="#DejaVuSans-6f" x="921.578125"/>
      <use xlink:href="#DejaVuSans-72" x="982.759766"/>
     </g>
    </g>
   </g>
   <g id="line2d_31">
    <path d="M 77.787273 43.387273 
L 93.206387 123.579554 
L 108.625501 203.771836 
L 124.044615 246.952295 
L 139.46373 271.626843 
L 154.882844 283.964117 
L 170.301958 296.301391 
L 185.721072 308.638666 
L 201.140186 314.807303 
L 216.559301 327.144577 
L 231.978415 333.313214 
L 247.397529 339.481851 
L 262.816643 342.566169 
L 278.235758 345.650488 
L 293.654872 348.117943 
L 309.073986 350.585397 
L 324.4931 352.435989 
L 339.912214 354.28658 
L 355.331329 356.137171 
L 370.750443 357.987762 
L 386.169557 359.221489 
L 401.588671 361.07208 
L 417.007786 362.305808 
L 432.4269 363.539535 
L 447.846014 364.773263 
L 463.265128 365.698558 
L 478.684242 366.623854 
L 494.103357 367.549149 
L 509.522471 368.474445 
L 524.941585 369.091309 
L 540.360699 369.708172 
L 555.779814 370.016604 
L 571.198928 370.325036 
L 586.618042 370.633468 
L 602.037156 370.9419 
L 617.45627 371.250332 
L 632.875385 371.558763 
L 648.294499 371.867195 
L 663.713613 372.175627 
L 679.132727 370.325036 
" clip-path="url(#p4cc7642f8e)" style="fill: none; stroke: #1f77b4; stroke-width: 1.5; stroke-linecap: square"/>
    <defs>
     <path id="m4029a273ac" d="M 0 3 
C 0.795609 3 1.55874 2.683901 2.12132 2.12132 
C 2.683901 1.55874 3 0.795609 3 0 
C 3 -0.795609 2.683901 -1.55874 2.12132 -2.12132 
C 1.55874 -2.683901 0.795609 -3 0 -3 
C -0.795609 -3 -1.55874 -2.683901 -2.12132 -2.12132 
C -2.683901 -1.55874 -3 -0.795609 -3 0 
C -3 0.795609 -2.683901 1.55874 -2.12132 2.12132 
C -1.55874 2.683901 -0.795609 3 0 3 
z
" style="stroke: #1f77b4"/>
    </defs>
    <g clip-path="url(#p4cc7642f8e)">
     <use xlink:href="#m4029a273ac" x="77.787273" y="43.387273" style="fill: #1f77b4; stroke: #1f77b4"/>
     <use xlink:href="#m4029a273ac" x="93.206387" y="123.579554" style="fill: #1f77b4; stroke: #1f77b4"/>
     <use xlink:href="#m4029a273ac" x="108.625501" y="203.771836" style="fill: #1f77b4; stroke: #1f77b4"/>
     <use xlink:href="#m4029a273ac" x="124.044615" y="246.952295" style="fill: #1f77b4; stroke: #1f77b4"/>
     <use xlink:href="#m4029a273ac" x="139.46373" y="271.626843" style="fill: #1f77b4; stroke: #1f77b4"/>
     <use xlink:href="#m4029a273ac" x="154.882844" y="283.964117" style="fill: #1f77b4; stroke: #1f77b4"/>
     <use xlink:href="#m4029a273ac" x="170.301958" y="296.301391" style="fill: #1f77b4; stroke: #1f77b4"/>
     <use xlink:href="#m4029a273ac" x="185.721072" y="308.638666" style="fill: #1f77b4; stroke: #1f77b4"/>
     <use xlink:href="#m4029a273ac" x="201.140186" y="314.807303" style="fill: #1f77b4; stroke: #1f77b4"/>
     <use xlink:href="#m4029a273ac" x="216.559301" y="327.144577" style="fill: #1f77b4; stroke: #1f77b4"/>
     <use xlink:href="#m4029a273ac" x="231.978415" y="333.313214" style="fill: #1f77b4; stroke: #1f77b4"/>
     <use xlink:href="#m4029a273ac" x="247.397529" y="339.481851" style="fill: #1f77b4; stroke: #1f77b4"/>
     <use xlink:href="#m4029a273ac" x="262.816643" y="342.566169" style="fill: #1f77b4; stroke: #1f77b4"/>
     <use xlink:href="#m4029a273ac" x="278.235758" y="345.650488" style="fill: #1f77b4; stroke: #1f77b4"/>
     <use xlink:href="#m4029a273ac" x="293.654872" y="348.117943" style="fill: #1f77b4; stroke: #1f77b4"/>
     <use xlink:href="#m4029a273ac" x="309.073986" y="350.585397" style="fill: #1f77b4; stroke: #1f77b4"/>
     <use xlink:href="#m4029a273ac" x="324.4931" y="352.435989" style="fill: #1f77b4; stroke: #1f77b4"/>
     <use xlink:href="#m4029a273ac" x="339.912214" y="354.28658" style="fill: #1f77b4; stroke: #1f77b4"/>
     <use xlink:href="#m4029a273ac" x="355.331329" y="356.137171" style="fill: #1f77b4; stroke: #1f77b4"/>
     <use xlink:href="#m4029a273ac" x="370.750443" y="357.987762" style="fill: #1f77b4; stroke: #1f77b4"/>
     <use xlink:href="#m4029a273ac" x="386.169557" y="359.221489" style="fill: #1f77b4; stroke: #1f77b4"/>
     <use xlink:href="#m4029a273ac" x="401.588671" y="361.07208" style="fill: #1f77b4; stroke: #1f77b4"/>
     <use xlink:href="#m4029a273ac" x="417.007786" y="362.305808" style="fill: #1f77b4; stroke: #1f77b4"/>
     <use xlink:href="#m4029a273ac" x="432.4269" y="363.539535" style="fill: #1f77b4; stroke: #1f77b4"/>
     <use xlink:href="#m4029a273ac" x="447.846014" y="364.773263" style="fill: #1f77b4; stroke: #1f77b4"/>
     <use xlink:href="#m4029a273ac" x="463.265128" y="365.698558" style="fill: #1f77b4; stroke: #1f77b4"/>
     <use xlink:href="#m4029a273ac" x="478.684242" y="366.623854" style="fill: #1f77b4; stroke: #1f77b4"/>
     <use xlink:href="#m4029a273ac" x="494.103357" y="367.549149" style="fill: #1f77b4; stroke: #1f77b4"/>
     <use xlink:href="#m4029a273ac" x="509.522471" y="368.474445" style="fill: #1f77b4; stroke: #1f77b4"/>
     <use xlink:href="#m4029a273ac" x="524.941585" y="369.091309" style="fill: #1f77b4; stroke: #1f77b4"/>
     <use xlink:href="#m4029a273ac" x="540.360699" y="369.708172" style="fill: #1f77b4; stroke: #1f77b4"/>
     <use xlink:href="#m4029a273ac" x="555.779814" y="370.016604" style="fill: #1f77b4; stroke: #1f77b4"/>
     <use xlink:href="#m4029a273ac" x="571.198928" y="370.325036" style="fill: #1f77b4; stroke: #1f77b4"/>
     <use xlink:href="#m4029a273ac" x="586.618042" y="370.633468" style="fill: #1f77b4; stroke: #1f77b4"/>
     <use xlink:href="#m4029a273ac" x="602.037156" y="370.9419" style="fill: #1f77b4; stroke: #1f77b4"/>
     <use xlink:href="#m4029a273ac" x="617.45627" y="371.250332" style="fill: #1f77b4; stroke: #1f77b4"/>
     <use xlink:href="#m4029a273ac" x="632.875385" y="371.558763" style="fill: #1f77b4; stroke: #1f77b4"/>
     <use xlink:href="#m4029a273ac" x="648.294499" y="371.867195" style="fill: #1f77b4; stroke: #1f77b4"/>
     <use xlink:href="#m4029a273ac" x="663.713613" y="372.175627" style="fill: #1f77b4; stroke: #1f77b4"/>
     <use xlink:href="#m4029a273ac" x="679.132727" y="370.325036" style="fill: #1f77b4; stroke: #1f77b4"/>
    </g>
   </g>
   <g id="line2d_32">
    <path d="M 77.787273 216.10911 
L 93.206387 308.638666 
L 108.625501 327.144577 
L 124.044615 339.481851 
L 139.46373 351.819125 
L 154.882844 355.520307 
L 170.301958 357.987762 
L 185.721072 361.07208 
L 201.140186 363.539535 
L 216.559301 364.156399 
L 231.978415 367.240717 
L 247.397529 369.091309 
L 262.816643 369.39974 
L 278.235758 369.708172 
L 293.654872 369.831545 
L 309.073986 370.016604 
L 324.4931 370.139977 
L 339.912214 370.26335 
L 355.331329 370.325036 
L 370.750443 370.448409 
L 386.169557 370.571781 
L 401.588671 370.633468 
L 417.007786 370.756841 
L 432.4269 370.818527 
L 447.846014 370.880213 
L 463.265128 370.9419 
L 478.684242 371.003586 
L 494.103357 371.065272 
L 509.522471 371.126959 
L 524.941585 371.188645 
L 540.360699 371.250332 
L 555.779814 371.312018 
L 571.198928 371.373704 
L 586.618042 371.435391 
L 602.037156 371.497077 
L 617.45627 371.558763 
L 632.875385 371.589607 
L 648.294499 371.62045 
L 663.713613 370.325036 
L 679.132727 369.708172 
" clip-path="url(#p4cc7642f8e)" style="fill: none; stroke: #ff7f0e; stroke-width: 1.5; stroke-linecap: square"/>
    <defs>
     <path id="m682cd2f079" d="M 0 3 
C 0.795609 3 1.55874 2.683901 2.12132 2.12132 
C 2.683901 1.55874 3 0.795609 3 0 
C 3 -0.795609 2.683901 -1.55874 2.12132 -2.12132 
C 1.55874 -2.683901 0.795609 -3 0 -3 
C -0.795609 -3 -1.55874 -2.683901 -2.12132 -2.12132 
C -2.683901 -1.55874 -3 -0.795609 -3 0 
C -3 0.795609 -2.683901 1.55874 -2.12132 2.12132 
C -1.55874 2.683901 -0.795609 3 0 3 
z
" style="stroke: #ff7f0e"/>
    </defs>
    <g clip-path="url(#p4cc7642f8e)">
     <use xlink:href="#m682cd2f079" x="77.787273" y="216.10911" style="fill: #ff7f0e; stroke: #ff7f0e"/>
     <use xlink:href="#m682cd2f079" x="93.206387" y="308.638666" style="fill: #ff7f0e; stroke: #ff7f0e"/>
     <use xlink:href="#m682cd2f079" x="108.625501" y="327.144577" style="fill: #ff7f0e; stroke: #ff7f0e"/>
     <use xlink:href="#m682cd2f079" x="124.044615" y="339.481851" style="fill: #ff7f0e; stroke: #ff7f0e"/>
     <use xlink:href="#m682cd2f079" x="139.46373" y="351.819125" style="fill: #ff7f0e; stroke: #ff7f0e"/>
     <use xlink:href="#m682cd2f079" x="154.882844" y="355.520307" style="fill: #ff7f0e; stroke: #ff7f0e"/>
     <use xlink:href="#m682cd2f079" x="170.301958" y="357.987762" style="fill: #ff7f0e; stroke: #ff7f0e"/>
     <use xlink:href="#m682cd2f079" x="185.721072" y="361.07208" style="fill: #ff7f0e; stroke: #ff7f0e"/>
     <use xlink:href="#m682cd2f079" x="201.140186" y="363.539535" style="fill: #ff7f0e; stroke: #ff7f0e"/>
     <use xlink:href="#m682cd2f079" x="216.559301" y="364.156399" style="fill: #ff7f0e; stroke: #ff7f0e"/>
     <use xlink:href="#m682cd2f079" x="231.978415" y="367.240717" style="fill: #ff7f0e; stroke: #ff7f0e"/>
     <use xlink:href="#m682cd2f079" x="247.397529" y="369.091309" style="fill: #ff7f0e; stroke: #ff7f0e"/>
     <use xlink:href="#m682cd2f079" x="262.816643" y="369.39974" style="fill: #ff7f0e; stroke: #ff7f0e"/>
     <use xlink:href="#m682cd2f079" x="278.235758" y="369.708172" style="fill: #ff7f0e; stroke: #ff7f0e"/>
     <use xlink:href="#m682cd2f079" x="293.654872" y="369.831545" style="fill: #ff7f0e; stroke: #ff7f0e"/>
     <use xlink:href="#m682cd2f079" x="309.073986" y="370.016604" style="fill: #ff7f0e; stroke: #ff7f0e"/>
     <use xlink:href="#m682cd2f079" x="324.4931" y="370.139977" style="fill: #ff7f0e; stroke: #ff7f0e"/>
     <use xlink:href="#m682cd2f079" x="339.912214" y="370.26335" style="fill: #ff7f0e; stroke: #ff7f0e"/>
     <use xlink:href="#m682cd2f079" x="355.331329" y="370.325036" style="fill: #ff7f0e; stroke: #ff7f0e"/>
     <use xlink:href="#m682cd2f079" x="370.750443" y="370.448409" style="fill: #ff7f0e; stroke: #ff7f0e"/>
     <use xlink:href="#m682cd2f079" x="386.169557" y="370.571781" style="fill: #ff7f0e; stroke: #ff7f0e"/>
     <use xlink:href="#m682cd2f079" x="401.588671" y="370.633468" style="fill: #ff7f0e; stroke: #ff7f0e"/>
     <use xlink:href="#m682cd2f079" x="417.007786" y="370.756841" style="fill: #ff7f0e; stroke: #ff7f0e"/>
     <use xlink:href="#m682cd2f079" x="432.4269" y="370.818527" style="fill: #ff7f0e; stroke: #ff7f0e"/>
     <use xlink:href="#m682cd2f079" x="447.846014" y="370.880213" style="fill: #ff7f0e; stroke: #ff7f0e"/>
     <use xlink:href="#m682cd2f079" x="463.265128" y="370.9419" style="fill: #ff7f0e; stroke: #ff7f0e"/>
     <use xlink:href="#m682cd2f079" x="478.684242" y="371.003586" style="fill: #ff7f0e; stroke: #ff7f0e"/>
     <use xlink:href="#m682cd2f079" x="494.103357" y="371.065272" style="fill: #ff7f0e; stroke: #ff7f0e"/>
     <use xlink:href="#m682cd2f079" x="509.522471" y="371.126959" style="fill: #ff7f0e; stroke: #ff7f0e"/>
     <use xlink:href="#m682cd2f079" x="524.941585" y="371.188645" style="fill: #ff7f0e; stroke: #ff7f0e"/>
     <use xlink:href="#m682cd2f079" x="540.360699" y="371.250332" style="fill: #ff7f0e; stroke: #ff7f0e"/>
     <use xlink:href="#m682cd2f079" x="555.779814" y="371.312018" style="fill: #ff7f0e; stroke: #ff7f0e"/>
     <use xlink:href="#m682cd2f079" x="571.198928" y="371.373704" style="fill: #ff7f0e; stroke: #ff7f0e"/>
     <use xlink:href="#m682cd2f079" x="586.618042" y="371.435391" style="fill: #ff7f0e; stroke: #ff7f0e"/>
     <use xlink:href="#m682cd2f079" x="602.037156" y="371.497077" style="fill: #ff7f0e; stroke: #ff7f0e"/>
     <use xlink:href="#m682cd2f079" x="617.45627" y="371.558763" style="fill: #ff7f0e; stroke: #ff7f0e"/>
     <use xlink:href="#m682cd2f079" x="632.875385" y="371.589607" style="fill: #ff7f0e; stroke: #ff7f0e"/>
     <use xlink:href="#m682cd2f079" x="648.294499" y="371.62045" style="fill: #ff7f0e; stroke: #ff7f0e"/>
     <use xlink:href="#m682cd2f079" x="663.713613" y="370.325036" style="fill: #ff7f0e; stroke: #ff7f0e"/>
     <use xlink:href="#m682cd2f079" x="679.132727" y="369.708172" style="fill: #ff7f0e; stroke: #ff7f0e"/>
    </g>
   </g>
   <g id="line2d_33">
    <path d="M 77.787273 308.638666 
L 93.206387 339.481851 
L 108.625501 357.987762 
L 124.044615 367.240717 
L 139.46373 370.633468 
L 154.882844 370.818527 
L 170.301958 371.250332 
L 185.721072 371.867195 
L 201.140186 372.175627 
L 216.559301 372.299 
L 231.978415 372.052254 
L 247.397529 372.484059 
L 262.816643 372.175627 
L 278.235758 372.669118 
L 293.654872 372.360686 
L 309.073986 372.915864 
L 324.4931 372.545745 
L 339.912214 372.792491 
L 355.331329 373.100923 
L 370.750443 372.792491 
L 386.169557 372.915864 
L 401.588671 372.669118 
L 417.007786 373.039236 
L 432.4269 372.792491 
L 447.846014 372.97755 
L 463.265128 372.854177 
L 478.684242 373.162609 
L 494.103357 372.915864 
L 509.522471 373.224295 
L 524.941585 373.039236 
L 540.360699 373.285982 
L 555.779814 373.100923 
L 571.198928 373.347668 
L 586.618042 373.162609 
L 602.037156 373.409355 
L 617.45627 373.224295 
L 632.875385 373.471041 
L 648.294499 373.285982 
L 663.713613 373.532727 
L 679.132727 373.347668 
" clip-path="url(#p4cc7642f8e)" style="fill: none; stroke: #2ca02c; stroke-width: 1.5; stroke-linecap: square"/>
    <defs>
     <path id="m0babe23d00" d="M 0 3 
C 0.795609 3 1.55874 2.683901 2.12132 2.12132 
C 2.683901 1.55874 3 0.795609 3 0 
C 3 -0.795609 2.683901 -1.55874 2.12132 -2.12132 
C 1.55874 -2.683901 0.795609 -3 0 -3 
C -0.795609 -3 -1.55874 -2.683901 -2.12132 -2.12132 
C -2.683901 -1.55874 -3 -0.795609 -3 0 
C -3 0.795609 -2.683901 1.55874 -2.12132 2.12132 
C -1.55874 2.683901 -0.795609 3 0 3 
z
" style="stroke: #2ca02c"/>
    </defs>
    <g clip-path="url(#p4cc7642f8e)">
     <use xlink:href="#m0babe23d00" x="77.787273" y="308.638666" style="fill: #2ca02c; stroke: #2ca02c"/>
     <use xlink:href="#m0babe23d00" x="93.206387" y="339.481851" style="fill: #2ca02c; stroke: #2ca02c"/>
     <use xlink:href="#m0babe23d00" x="108.625501" y="357.987762" style="fill: #2ca02c; stroke: #2ca02c"/>
     <use xlink:href="#m0babe23d00" x="124.044615" y="367.240717" style="fill: #2ca02c; stroke: #2ca02c"/>
     <use xlink:href="#m0babe23d00" x="139.46373" y="370.633468" style="fill: #2ca02c; stroke: #2ca02c"/>
     <use xlink:href="#m0babe23d00" x="154.882844" y="370.818527" style="fill: #2ca02c; stroke: #2ca02c"/>
     <use xlink:href="#m0babe23d00" x="170.301958" y="371.250332" style="fill: #2ca02c; stroke: #2ca02c"/>
     <use xlink:href="#m0babe23d00" x="185.721072" y="371.867195" style="fill: #2ca02c; stroke: #2ca02c"/>
     <use xlink:href="#m0babe23d00" x="201.140186" y="372.175627" style="fill: #2ca02c; stroke: #2ca02c"/>
     <use xlink:href="#m0babe23d00" x="216.559301" y="372.299" style="fill: #2ca02c; stroke: #2ca02c"/>
     <use xlink:href="#m0babe23d00" x="231.978415" y="372.052254" style="fill: #2ca02c; stroke: #2ca02c"/>
     <use xlink:href="#m0babe23d00" x="247.397529" y="372.484059" style="fill: #2ca02c; stroke: #2ca02c"/>
     <use xlink:href="#m0babe23d00" x="262.816643" y="372.175627" style="fill: #2ca02c; stroke: #2ca02c"/>
     <use xlink:href="#m0babe23d00" x="278.235758" y="372.669118" style="fill: #2ca02c; stroke: #2ca02c"/>
     <use xlink:href="#m0babe23d00" x="293.654872" y="372.360686" style="fill: #2ca02c; stroke: #2ca02c"/>
     <use xlink:href="#m0babe23d00" x="309.073986" y="372.915864" style="fill: #2ca02c; stroke: #2ca02c"/>
     <use xlink:href="#m0babe23d00" x="324.4931" y="372.545745" style="fill: #2ca02c; stroke: #2ca02c"/>
     <use xlink:href="#m0babe23d00" x="339.912214" y="372.792491" style="fill: #2ca02c; stroke: #2ca02c"/>
     <use xlink:href="#m0babe23d00" x="355.331329" y="373.100923" style="fill: #2ca02c; stroke: #2ca02c"/>
     <use xlink:href="#m0babe23d00" x="370.750443" y="372.792491" style="fill: #2ca02c; stroke: #2ca02c"/>
     <use xlink:href="#m0babe23d00" x="386.169557" y="372.915864" style="fill: #2ca02c; stroke: #2ca02c"/>
     <use xlink:href="#m0babe23d00" x="401.588671" y="372.669118" style="fill: #2ca02c; stroke: #2ca02c"/>
     <use xlink:href="#m0babe23d00" x="417.007786" y="373.039236" style="fill: #2ca02c; stroke: #2ca02c"/>
     <use xlink:href="#m0babe23d00" x="432.4269" y="372.792491" style="fill: #2ca02c; stroke: #2ca02c"/>
     <use xlink:href="#m0babe23d00" x="447.846014" y="372.97755" style="fill: #2ca02c; stroke: #2ca02c"/>
     <use xlink:href="#m0babe23d00" x="463.265128" y="372.854177" style="fill: #2ca02c; stroke: #2ca02c"/>
     <use xlink:href="#m0babe23d00" x="478.684242" y="373.162609" style="fill: #2ca02c; stroke: #2ca02c"/>
     <use xlink:href="#m0babe23d00" x="494.103357" y="372.915864" style="fill: #2ca02c; stroke: #2ca02c"/>
     <use xlink:href="#m0babe23d00" x="509.522471" y="373.224295" style="fill: #2ca02c; stroke: #2ca02c"/>
     <use xlink:href="#m0babe23d00" x="524.941585" y="373.039236" style="fill: #2ca02c; stroke: #2ca02c"/>
     <use xlink:href="#m0babe23d00" x="540.360699" y="373.285982" style="fill: #2ca02c; stroke: #2ca02c"/>
     <use xlink:href="#m0babe23d00" x="555.779814" y="373.100923" style="fill: #2ca02c; stroke: #2ca02c"/>
     <use xlink:href="#m0babe23d00" x="571.198928" y="373.347668" style="fill: #2ca02c; stroke: #2ca02c"/>
     <use xlink:href="#m0babe23d00" x="586.618042" y="373.162609" style="fill: #2ca02c; stroke: #2ca02c"/>
     <use xlink:href="#m0babe23d00" x="602.037156" y="373.409355" style="fill: #2ca02c; stroke: #2ca02c"/>
     <use xlink:href="#m0babe23d00" x="617.45627" y="373.224295" style="fill: #2ca02c; stroke: #2ca02c"/>
     <use xlink:href="#m0babe23d00" x="632.875385" y="373.471041" style="fill: #2ca02c; stroke: #2ca02c"/>
     <use xlink:href="#m0babe23d00" x="648.294499" y="373.285982" style="fill: #2ca02c; stroke: #2ca02c"/>
     <use xlink:href="#m0babe23d00" x="663.713613" y="373.532727" style="fill: #2ca02c; stroke: #2ca02c"/>
     <use xlink:href="#m0babe23d00" x="679.132727" y="373.347668" style="fill: #2ca02c; stroke: #2ca02c"/>
    </g>
   </g>
   <g id="line2d_34">
    <path d="M 77.787273 271.626843 
L 93.206387 290.132754 
L 108.625501 314.807303 
L 124.044615 333.313214 
L 139.46373 345.650488 
L 154.882844 351.819125 
L 170.301958 354.903443 
L 185.721072 356.754035 
L 201.140186 357.370898 
L 216.559301 357.987762 
L 231.978415 359.221489 
L 247.397529 360.455217 
L 262.816643 361.688944 
L 278.235758 362.922672 
L 293.654872 364.156399 
L 309.073986 364.773263 
L 324.4931 365.390126 
L 339.912214 366.00699 
L 355.331329 366.623854 
L 370.750443 367.240717 
L 386.169557 367.857581 
L 401.588671 368.474445 
L 417.007786 368.782877 
L 432.4269 369.091309 
L 447.846014 369.39974 
L 463.265128 369.708172 
L 478.684242 370.016604 
L 494.103357 370.325036 
L 509.522471 370.633468 
L 524.941585 370.9419 
L 540.360699 371.250332 
L 555.779814 371.558763 
L 571.198928 371.867195 
L 586.618042 371.62045 
L 602.037156 372.484059 
L 617.45627 372.730804 
L 632.875385 371.250332 
L 648.294499 370.633468 
L 663.713613 371.250332 
L 679.132727 370.26335 
" clip-path="url(#p4cc7642f8e)" style="fill: none; stroke: #d62728; stroke-width: 1.5; stroke-linecap: square"/>
    <defs>
     <path id="mbdb0cdb5ae" d="M 0 3 
C 0.795609 3 1.55874 2.683901 2.12132 2.12132 
C 2.683901 1.55874 3 0.795609 3 0 
C 3 -0.795609 2.683901 -1.55874 2.12132 -2.12132 
C 1.55874 -2.683901 0.795609 -3 0 -3 
C -0.795609 -3 -1.55874 -2.683901 -2.12132 -2.12132 
C -2.683901 -1.55874 -3 -0.795609 -3 0 
C -3 0.795609 -2.683901 1.55874 -2.12132 2.12132 
C -1.55874 2.683901 -0.795609 3 0 3 
z
" style="stroke: #d62728"/>
    </defs>
    <g clip-path="url(#p4cc7642f8e)">
     <use xlink:href="#mbdb0cdb5ae" x="77.787273" y="271.626843" style="fill: #d62728; stroke: #d62728"/>
     <use xlink:href="#mbdb0cdb5ae" x="93.206387" y="290.132754" style="fill: #d62728; stroke: #d62728"/>
     <use xlink:href="#mbdb0cdb5ae" x="108.625501" y="314.807303" style="fill: #d62728; stroke: #d62728"/>
     <use xlink:href="#mbdb0cdb5ae" x="124.044615" y="333.313214" style="fill: #d62728; stroke: #d62728"/>
     <use xlink:href="#mbdb0cdb5ae" x="139.46373" y="345.650488" style="fill: #d62728; stroke: #d62728"/>
     <use xlink:href="#mbdb0cdb5ae" x="154.882844" y="351.819125" style="fill: #d62728; stroke: #d62728"/>
     <use xlink:href="#mbdb0cdb5ae" x="170.301958" y="354.903443" style="fill: #d62728; stroke: #d62728"/>
     <use xlink:href="#mbdb0cdb5ae" x="185.721072" y="356.754035" style="fill: #d62728; stroke: #d62728"/>
     <use xlink:href="#mbdb0cdb5ae" x="201.140186" y="357.370898" style="fill: #d62728; stroke: #d62728"/>
     <use xlink:href="#mbdb0cdb5ae" x="216.559301" y="357.987762" style="fill: #d62728; stroke: #d62728"/>
     <use xlink:href="#mbdb0cdb5ae" x="231.978415" y="359.221489" style="fill: #d62728; stroke: #d62728"/>
     <use xlink:href="#mbdb0cdb5ae" x="247.397529" y="360.455217" style="fill: #d62728; stroke: #d62728"/>
     <use xlink:href="#mbdb0cdb5ae" x="262.816643" y="361.688944" style="fill: #d62728; stroke: #d62728"/>
     <use xlink:href="#mbdb0cdb5ae" x="278.235758" y="362.922672" style="fill: #d62728; stroke: #d62728"/>
     <use xlink:href="#mbdb0cdb5ae" x="293.654872" y="364.156399" style="fill: #d62728; stroke: #d62728"/>
     <use xlink:href="#mbdb0cdb5ae" x="309.073986" y="364.773263" style="fill: #d62728; stroke: #d62728"/>
     <use xlink:href="#mbdb0cdb5ae" x="324.4931" y="365.390126" style="fill: #d62728; stroke: #d62728"/>
     <use xlink:href="#mbdb0cdb5ae" x="339.912214" y="366.00699" style="fill: #d62728; stroke: #d62728"/>
     <use xlink:href="#mbdb0cdb5ae" x="355.331329" y="366.623854" style="fill: #d62728; stroke: #d62728"/>
     <use xlink:href="#mbdb0cdb5ae" x="370.750443" y="367.240717" style="fill: #d62728; stroke: #d62728"/>
     <use xlink:href="#mbdb0cdb5ae" x="386.169557" y="367.857581" style="fill: #d62728; stroke: #d62728"/>
     <use xlink:href="#mbdb0cdb5ae" x="401.588671" y="368.474445" style="fill: #d62728; stroke: #d62728"/>
     <use xlink:href="#mbdb0cdb5ae" x="417.007786" y="368.782877" style="fill: #d62728; stroke: #d62728"/>
     <use xlink:href="#mbdb0cdb5ae" x="432.4269" y="369.091309" style="fill: #d62728; stroke: #d62728"/>
     <use xlink:href="#mbdb0cdb5ae" x="447.846014" y="369.39974" style="fill: #d62728; stroke: #d62728"/>
     <use xlink:href="#mbdb0cdb5ae" x="463.265128" y="369.708172" style="fill: #d62728; stroke: #d62728"/>
     <use xlink:href="#mbdb0cdb5ae" x="478.684242" y="370.016604" style="fill: #d62728; stroke: #d62728"/>
     <use xlink:href="#mbdb0cdb5ae" x="494.103357" y="370.325036" style="fill: #d62728; stroke: #d62728"/>
     <use xlink:href="#mbdb0cdb5ae" x="509.522471" y="370.633468" style="fill: #d62728; stroke: #d62728"/>
     <use xlink:href="#mbdb0cdb5ae" x="524.941585" y="370.9419" style="fill: #d62728; stroke: #d62728"/>
     <use xlink:href="#mbdb0cdb5ae" x="540.360699" y="371.250332" style="fill: #d62728; stroke: #d62728"/>
     <use xlink:href="#mbdb0cdb5ae" x="555.779814" y="371.558763" style="fill: #d62728; stroke: #d62728"/>
     <use xlink:href="#mbdb0cdb5ae" x="571.198928" y="371.867195" style="fill: #d62728; stroke: #d62728"/>
     <use xlink:href="#mbdb0cdb5ae" x="586.618042" y="371.62045" style="fill: #d62728; stroke: #d62728"/>
     <use xlink:href="#mbdb0cdb5ae" x="602.037156" y="372.484059" style="fill: #d62728; stroke: #d62728"/>
     <use xlink:href="#mbdb0cdb5ae" x="617.45627" y="372.730804" style="fill: #d62728; stroke: #d62728"/>
     <use xlink:href="#mbdb0cdb5ae" x="632.875385" y="371.250332" style="fill: #d62728; stroke: #d62728"/>
     <use xlink:href="#mbdb0cdb5ae" x="648.294499" y="370.633468" style="fill: #d62728; stroke: #d62728"/>
     <use xlink:href="#mbdb0cdb5ae" x="663.713613" y="371.250332" style="fill: #d62728; stroke: #d62728"/>
     <use xlink:href="#mbdb0cdb5ae" x="679.132727" y="370.26335" style="fill: #d62728; stroke: #d62728"/>
    </g>
   </g>
   <g id="line2d_35">
    <path d="M 77.787273 277.79548 
L 93.206387 283.964117 
L 108.625501 287.048436 
L 124.044615 288.899027 
L 139.46373 290.749618 
L 154.882844 291.983346 
L 170.301958 292.600209 
L 185.721072 293.833937 
L 201.140186 294.4508 
L 216.559301 295.684528 
L 231.978415 296.301391 
L 247.397529 296.918255 
L 262.816643 297.535119 
L 278.235758 297.843551 
L 293.654872 298.768846 
L 309.073986 299.38571 
L 324.4931 300.002574 
L 339.912214 300.619437 
L 355.331329 300.927869 
L 370.750443 295.067664 
L 386.169557 301.544733 
L 401.588671 301.853165 
L 417.007786 302.161597 
L 432.4269 302.470029 
L 447.846014 303.086892 
L 463.265128 303.395324 
L 478.684242 303.703756 
L 494.103357 304.012188 
L 509.522471 304.32062 
L 524.941585 304.629052 
L 540.360699 304.937483 
L 555.779814 305.245915 
L 571.198928 305.554347 
L 586.618042 305.862779 
L 602.037156 306.171211 
L 617.45627 306.479643 
L 632.875385 306.788074 
L 648.294499 307.096506 
L 663.713613 307.404938 
L 679.132727 307.71337 
" clip-path="url(#p4cc7642f8e)" style="fill: none; stroke: #9467bd; stroke-width: 1.5; stroke-linecap: square"/>
    <defs>
     <path id="m494ea5782d" d="M 0 3 
C 0.795609 3 1.55874 2.683901 2.12132 2.12132 
C 2.683901 1.55874 3 0.795609 3 0 
C 3 -0.795609 2.683901 -1.55874 2.12132 -2.12132 
C 1.55874 -2.683901 0.795609 -3 0 -3 
C -0.795609 -3 -1.55874 -2.683901 -2.12132 -2.12132 
C -2.683901 -1.55874 -3 -0.795609 -3 0 
C -3 0.795609 -2.683901 1.55874 -2.12132 2.12132 
C -1.55874 2.683901 -0.795609 3 0 3 
z
" style="stroke: #9467bd"/>
    </defs>
    <g clip-path="url(#p4cc7642f8e)">
     <use xlink:href="#m494ea5782d" x="77.787273" y="277.79548" style="fill: #9467bd; stroke: #9467bd"/>
     <use xlink:href="#m494ea5782d" x="93.206387" y="283.964117" style="fill: #9467bd; stroke: #9467bd"/>
     <use xlink:href="#m494ea5782d" x="108.625501" y="287.048436" style="fill: #9467bd; stroke: #9467bd"/>
     <use xlink:href="#m494ea5782d" x="124.044615" y="288.899027" style="fill: #9467bd; stroke: #9467bd"/>
     <use xlink:href="#m494ea5782d" x="139.46373" y="290.749618" style="fill: #9467bd; stroke: #9467bd"/>
     <use xlink:href="#m494ea5782d" x="154.882844" y="291.983346" style="fill: #9467bd; stroke: #9467bd"/>
     <use xlink:href="#m494ea5782d" x="170.301958" y="292.600209" style="fill: #9467bd; stroke: #9467bd"/>
     <use xlink:href="#m494ea5782d" x="185.721072" y="293.833937" style="fill: #9467bd; stroke: #9467bd"/>
     <use xlink:href="#m494ea5782d" x="201.140186" y="294.4508" style="fill: #9467bd; stroke: #9467bd"/>
     <use xlink:href="#m494ea5782d" x="216.559301" y="295.684528" style="fill: #9467bd; stroke: #9467bd"/>
     <use xlink:href="#m494ea5782d" x="231.978415" y="296.301391" style="fill: #9467bd; stroke: #9467bd"/>
     <use xlink:href="#m494ea5782d" x="247.397529" y="296.918255" style="fill: #9467bd; stroke: #9467bd"/>
     <use xlink:href="#m494ea5782d" x="262.816643" y="297.535119" style="fill: #9467bd; stroke: #9467bd"/>
     <use xlink:href="#m494ea5782d" x="278.235758" y="297.843551" style="fill: #9467bd; stroke: #9467bd"/>
     <use xlink:href="#m494ea5782d" x="293.654872" y="298.768846" style="fill: #9467bd; stroke: #9467bd"/>
     <use xlink:href="#m494ea5782d" x="309.073986" y="299.38571" style="fill: #9467bd; stroke: #9467bd"/>
     <use xlink:href="#m494ea5782d" x="324.4931" y="300.002574" style="fill: #9467bd; stroke: #9467bd"/>
     <use xlink:href="#m494ea5782d" x="339.912214" y="300.619437" style="fill: #9467bd; stroke: #9467bd"/>
     <use xlink:href="#m494ea5782d" x="355.331329" y="300.927869" style="fill: #9467bd; stroke: #9467bd"/>
     <use xlink:href="#m494ea5782d" x="370.750443" y="295.067664" style="fill: #9467bd; stroke: #9467bd"/>
     <use xlink:href="#m494ea5782d" x="386.169557" y="301.544733" style="fill: #9467bd; stroke: #9467bd"/>
     <use xlink:href="#m494ea5782d" x="401.588671" y="301.853165" style="fill: #9467bd; stroke: #9467bd"/>
     <use xlink:href="#m494ea5782d" x="417.007786" y="302.161597" style="fill: #9467bd; stroke: #9467bd"/>
     <use xlink:href="#m494ea5782d" x="432.4269" y="302.470029" style="fill: #9467bd; stroke: #9467bd"/>
     <use xlink:href="#m494ea5782d" x="447.846014" y="303.086892" style="fill: #9467bd; stroke: #9467bd"/>
     <use xlink:href="#m494ea5782d" x="463.265128" y="303.395324" style="fill: #9467bd; stroke: #9467bd"/>
     <use xlink:href="#m494ea5782d" x="478.684242" y="303.703756" style="fill: #9467bd; stroke: #9467bd"/>
     <use xlink:href="#m494ea5782d" x="494.103357" y="304.012188" style="fill: #9467bd; stroke: #9467bd"/>
     <use xlink:href="#m494ea5782d" x="509.522471" y="304.32062" style="fill: #9467bd; stroke: #9467bd"/>
     <use xlink:href="#m494ea5782d" x="524.941585" y="304.629052" style="fill: #9467bd; stroke: #9467bd"/>
     <use xlink:href="#m494ea5782d" x="540.360699" y="304.937483" style="fill: #9467bd; stroke: #9467bd"/>
     <use xlink:href="#m494ea5782d" x="555.779814" y="305.245915" style="fill: #9467bd; stroke: #9467bd"/>
     <use xlink:href="#m494ea5782d" x="571.198928" y="305.554347" style="fill: #9467bd; stroke: #9467bd"/>
     <use xlink:href="#m494ea5782d" x="586.618042" y="305.862779" style="fill: #9467bd; stroke: #9467bd"/>
     <use xlink:href="#m494ea5782d" x="602.037156" y="306.171211" style="fill: #9467bd; stroke: #9467bd"/>
     <use xlink:href="#m494ea5782d" x="617.45627" y="306.479643" style="fill: #9467bd; stroke: #9467bd"/>
     <use xlink:href="#m494ea5782d" x="632.875385" y="306.788074" style="fill: #9467bd; stroke: #9467bd"/>
     <use xlink:href="#m494ea5782d" x="648.294499" y="307.096506" style="fill: #9467bd; stroke: #9467bd"/>
     <use xlink:href="#m494ea5782d" x="663.713613" y="307.404938" style="fill: #9467bd; stroke: #9467bd"/>
     <use xlink:href="#m494ea5782d" x="679.132727" y="307.71337" style="fill: #9467bd; stroke: #9467bd"/>
    </g>
   </g>
   <g id="patch_3">
    <path d="M 47.72 390.04 
L 47.72 26.88 
" style="fill: none; stroke: #000000; stroke-width: 0.8; stroke-linejoin: miter; stroke-linecap: square"/>
   </g>
   <g id="patch_4">
    <path d="M 709.2 390.04 
L 709.2 26.88 
" style="fill: none; stroke: #000000; stroke-width: 0.8; stroke-linejoin: miter; stroke-linecap: square"/>
   </g>
   <g id="patch_5">
    <path d="M 47.72 390.04 
L 709.2 390.04 
" style="fill: none; stroke: #000000; stroke-width: 0.8; stroke-linejoin: miter; stroke-linecap: square"/>
   </g>
   <g id="patch_6">
    <path d="M 47.72 26.88 
L 709.2 26.88 
" style="fill: none; stroke: #000000; stroke-width: 0.8; stroke-linejoin: miter; stroke-linecap: square"/>
   </g>
   <g id="text_18">
    <!-- Reconstruction Error across Different Learning Rates and Epochs -->
    <g transform="translate(184.25875 20.88) scale(0.12 -0.12)">
     <defs>
      <path id="DejaVuSans-61" d="M 2194 1759 
Q 1497 1759 1228 1600 
Q 959 1441 959 1056 
Q 959 750 1161 570 
Q 1363 391 1709 391 
Q 2188 391 2477 730 
Q 2766 1069 2766 1631 
L 2766 1759 
L 2194 1759 
z
M 3341 1997 
L 3341 0 
L 2766 0 
L 2766 531 
Q 2569 213 2275 61 
Q 1981 -91 1556 -91 
Q 1019 -91 701 211 
Q 384 513 384 1019 
Q 384 1609 779 1909 
Q 1175 2209 1959 2209 
L 2766 2209 
L 2766 2266 
Q 2766 2663 2505 2880 
Q 2244 3097 1772 3097 
Q 1472 3097 1187 3025 
Q 903 2953 641 2809 
L 641 3341 
Q 956 3463 1253 3523 
Q 1550 3584 1831 3584 
Q 2591 3584 2966 3190 
Q 3341 2797 3341 1997 
z
" transform="scale(0.015625)"/>
      <path id="DejaVuSans-44" d="M 1259 4147 
L 1259 519 
L 2022 519 
Q 2988 519 3436 956 
Q 3884 1394 3884 2338 
Q 3884 3275 3436 3711 
Q 2988 4147 2022 4147 
L 1259 4147 
z
M 628 4666 
L 1925 4666 
Q 3281 4666 3915 4102 
Q 4550 3538 4550 2338 
Q 4550 1131 3912 565 
Q 3275 0 1925 0 
L 628 0 
L 628 4666 
z
" transform="scale(0.015625)"/>
      <path id="DejaVuSans-66" d="M 2375 4863 
L 2375 4384 
L 1825 4384 
Q 1516 4384 1395 4259 
Q 1275 4134 1275 3809 
L 1275 3500 
L 2222 3500 
L 2222 3053 
L 1275 3053 
L 1275 0 
L 697 0 
L 697 3053 
L 147 3053 
L 147 3500 
L 697 3500 
L 697 3744 
Q 697 4328 969 4595 
Q 1241 4863 1831 4863 
L 2375 4863 
z
" transform="scale(0.015625)"/>
      <path id="DejaVuSans-4c" d="M 628 4666 
L 1259 4666 
L 1259 531 
L 3531 531 
L 3531 0 
L 628 0 
L 628 4666 
z
" transform="scale(0.015625)"/>
      <path id="DejaVuSans-67" d="M 2906 1791 
Q 2906 2416 2648 2759 
Q 2391 3103 1925 3103 
Q 1463 3103 1205 2759 
Q 947 2416 947 1791 
Q 947 1169 1205 825 
Q 1463 481 1925 481 
Q 2391 481 2648 825 
Q 2906 1169 2906 1791 
z
M 3481 434 
Q 3481 -459 3084 -895 
Q 2688 -1331 1869 -1331 
Q 1566 -1331 1297 -1286 
Q 1028 -1241 775 -1147 
L 775 -588 
Q 1028 -725 1275 -790 
Q 1522 -856 1778 -856 
Q 2344 -856 2625 -561 
Q 2906 -266 2906 331 
L 2906 616 
Q 2728 306 2450 153 
Q 2172 0 1784 0 
Q 1141 0 747 490 
Q 353 981 353 1791 
Q 353 2603 747 3093 
Q 1141 3584 1784 3584 
Q 2172 3584 2450 3431 
Q 2728 3278 2906 2969 
L 2906 3500 
L 3481 3500 
L 3481 434 
z
" transform="scale(0.015625)"/>
      <path id="DejaVuSans-64" d="M 2906 2969 
L 2906 4863 
L 3481 4863 
L 3481 0 
L 2906 0 
L 2906 525 
Q 2725 213 2448 61 
Q 2172 -91 1784 -91 
Q 1150 -91 751 415 
Q 353 922 353 1747 
Q 353 2572 751 3078 
Q 1150 3584 1784 3584 
Q 2172 3584 2448 3432 
Q 2725 3281 2906 2969 
z
M 947 1747 
Q 947 1113 1208 752 
Q 1469 391 1925 391 
Q 2381 391 2643 752 
Q 2906 1113 2906 1747 
Q 2906 2381 2643 2742 
Q 2381 3103 1925 3103 
Q 1469 3103 1208 2742 
Q 947 2381 947 1747 
z
" transform="scale(0.015625)"/>
     </defs>
     <use xlink:href="#DejaVuSans-52"/>
     <use xlink:href="#DejaVuSans-65" x="64.982422"/>
     <use xlink:href="#DejaVuSans-63" x="126.505859"/>
     <use xlink:href="#DejaVuSans-6f" x="181.486328"/>
     <use xlink:href="#DejaVuSans-6e" x="242.667969"/>
     <use xlink:href="#DejaVuSans-73" x="306.046875"/>
     <use xlink:href="#DejaVuSans-74" x="358.146484"/>
     <use xlink:href="#DejaVuSans-72" x="397.355469"/>
     <use xlink:href="#DejaVuSans-75" x="438.46875"/>
     <use xlink:href="#DejaVuSans-63" x="501.847656"/>
     <use xlink:href="#DejaVuSans-74" x="556.828125"/>
     <use xlink:href="#DejaVuSans-69" x="596.037109"/>
     <use xlink:href="#DejaVuSans-6f" x="623.820312"/>
     <use xlink:href="#DejaVuSans-6e" x="685.001953"/>
     <use xlink:href="#DejaVuSans-20" x="748.380859"/>
     <use xlink:href="#DejaVuSans-45" x="780.167969"/>
     <use xlink:href="#DejaVuSans-72" x="843.351562"/>
     <use xlink:href="#DejaVuSans-72" x="882.714844"/>
     <use xlink:href="#DejaVuSans-6f" x="921.578125"/>
     <use xlink:href="#DejaVuSans-72" x="982.759766"/>
     <use xlink:href="#DejaVuSans-20" x="1023.873047"/>
     <use xlink:href="#DejaVuSans-61" x="1055.660156"/>
     <use xlink:href="#DejaVuSans-63" x="1116.939453"/>
     <use xlink:href="#DejaVuSans-72" x="1171.919922"/>
     <use xlink:href="#DejaVuSans-6f" x="1210.783203"/>
     <use xlink:href="#DejaVuSans-73" x="1271.964844"/>
     <use xlink:href="#DejaVuSans-73" x="1324.064453"/>
     <use xlink:href="#DejaVuSans-20" x="1376.164062"/>
     <use xlink:href="#DejaVuSans-44" x="1407.951172"/>
     <use xlink:href="#DejaVuSans-69" x="1484.953125"/>
     <use xlink:href="#DejaVuSans-66" x="1512.736328"/>
     <use xlink:href="#DejaVuSans-66" x="1547.941406"/>
     <use xlink:href="#DejaVuSans-65" x="1583.146484"/>
     <use xlink:href="#DejaVuSans-72" x="1644.669922"/>
     <use xlink:href="#DejaVuSans-65" x="1683.533203"/>
     <use xlink:href="#DejaVuSans-6e" x="1745.056641"/>
     <use xlink:href="#DejaVuSans-74" x="1808.435547"/>
     <use xlink:href="#DejaVuSans-20" x="1847.644531"/>
     <use xlink:href="#DejaVuSans-4c" x="1879.431641"/>
     <use xlink:href="#DejaVuSans-65" x="1933.394531"/>
     <use xlink:href="#DejaVuSans-61" x="1994.917969"/>
     <use xlink:href="#DejaVuSans-72" x="2056.197266"/>
     <use xlink:href="#DejaVuSans-6e" x="2095.560547"/>
     <use xlink:href="#DejaVuSans-69" x="2158.939453"/>
     <use xlink:href="#DejaVuSans-6e" x="2186.722656"/>
     <use xlink:href="#DejaVuSans-67" x="2250.101562"/>
     <use xlink:href="#DejaVuSans-20" x="2313.578125"/>
     <use xlink:href="#DejaVuSans-52" x="2345.365234"/>
     <use xlink:href="#DejaVuSans-61" x="2412.597656"/>
     <use xlink:href="#DejaVuSans-74" x="2473.876953"/>
     <use xlink:href="#DejaVuSans-65" x="2513.085938"/>
     <use xlink:href="#DejaVuSans-73" x="2574.609375"/>
     <use xlink:href="#DejaVuSans-20" x="2626.708984"/>
     <use xlink:href="#DejaVuSans-61" x="2658.496094"/>
     <use xlink:href="#DejaVuSans-6e" x="2719.775391"/>
     <use xlink:href="#DejaVuSans-64" x="2783.154297"/>
     <use xlink:href="#DejaVuSans-20" x="2846.630859"/>
     <use xlink:href="#DejaVuSans-45" x="2878.417969"/>
     <use xlink:href="#DejaVuSans-70" x="2941.601562"/>
     <use xlink:href="#DejaVuSans-6f" x="3005.078125"/>
     <use xlink:href="#DejaVuSans-63" x="3066.259766"/>
     <use xlink:href="#DejaVuSans-68" x="3121.240234"/>
     <use xlink:href="#DejaVuSans-73" x="3184.619141"/>
    </g>
   </g>
   <g id="legend_1">
    <g id="patch_7">
     <path d="M 614.309375 122.94875 
L 702.2 122.94875 
Q 704.2 122.94875 704.2 120.94875 
L 704.2 33.88 
Q 704.2 31.88 702.2 31.88 
L 614.309375 31.88 
Q 612.309375 31.88 612.309375 33.88 
L 612.309375 120.94875 
Q 612.309375 122.94875 614.309375 122.94875 
z
" style="fill: #ffffff; opacity: 0.8; stroke: #cccccc; stroke-linejoin: miter"/>
    </g>
    <g id="text_19">
     <!-- Learning Rate -->
     <g transform="translate(623.495313 43.478438) scale(0.1 -0.1)">
      <use xlink:href="#DejaVuSans-4c"/>
      <use xlink:href="#DejaVuSans-65" x="53.962891"/>
      <use xlink:href="#DejaVuSans-61" x="115.486328"/>
      <use xlink:href="#DejaVuSans-72" x="176.765625"/>
      <use xlink:href="#DejaVuSans-6e" x="216.128906"/>
      <use xlink:href="#DejaVuSans-69" x="279.507812"/>
      <use xlink:href="#DejaVuSans-6e" x="307.291016"/>
      <use xlink:href="#DejaVuSans-67" x="370.669922"/>
      <use xlink:href="#DejaVuSans-20" x="434.146484"/>
      <use xlink:href="#DejaVuSans-52" x="465.933594"/>
      <use xlink:href="#DejaVuSans-61" x="533.166016"/>
      <use xlink:href="#DejaVuSans-74" x="594.445312"/>
      <use xlink:href="#DejaVuSans-65" x="633.654297"/>
     </g>
    </g>
    <g id="line2d_36">
     <path d="M 616.309375 54.656563 
L 626.309375 54.656563 
L 636.309375 54.656563 
" style="fill: none; stroke: #1f77b4; stroke-width: 1.5; stroke-linecap: square"/>
     <g>
      <use xlink:href="#m4029a273ac" x="626.309375" y="54.656563" style="fill: #1f77b4; stroke: #1f77b4"/>
     </g>
    </g>
    <g id="text_20">
     <!-- LR=0.0005 -->
     <g transform="translate(644.309375 58.156563) scale(0.1 -0.1)">
      <defs>
       <path id="DejaVuSans-3d" d="M 678 2906 
L 4684 2906 
L 4684 2381 
L 678 2381 
L 678 2906 
z
M 678 1631 
L 4684 1631 
L 4684 1100 
L 678 1100 
L 678 1631 
z
" transform="scale(0.015625)"/>
      </defs>
      <use xlink:href="#DejaVuSans-4c"/>
      <use xlink:href="#DejaVuSans-52" x="55.712891"/>
      <use xlink:href="#DejaVuSans-3d" x="125.195312"/>
      <use xlink:href="#DejaVuSans-30" x="208.984375"/>
      <use xlink:href="#DejaVuSans-2e" x="272.607422"/>
      <use xlink:href="#DejaVuSans-30" x="304.394531"/>
      <use xlink:href="#DejaVuSans-30" x="368.017578"/>
      <use xlink:href="#DejaVuSans-30" x="431.640625"/>
      <use xlink:href="#DejaVuSans-35" x="495.263672"/>
     </g>
    </g>
    <g id="line2d_37">
     <path d="M 616.309375 69.334688 
L 626.309375 69.334688 
L 636.309375 69.334688 
" style="fill: none; stroke: #ff7f0e; stroke-width: 1.5; stroke-linecap: square"/>
     <g>
      <use xlink:href="#m682cd2f079" x="626.309375" y="69.334688" style="fill: #ff7f0e; stroke: #ff7f0e"/>
     </g>
    </g>
    <g id="text_21">
     <!-- LR=0.001 -->
     <g transform="translate(644.309375 72.834688) scale(0.1 -0.1)">
      <use xlink:href="#DejaVuSans-4c"/>
      <use xlink:href="#DejaVuSans-52" x="55.712891"/>
      <use xlink:href="#DejaVuSans-3d" x="125.195312"/>
      <use xlink:href="#DejaVuSans-30" x="208.984375"/>
      <use xlink:href="#DejaVuSans-2e" x="272.607422"/>
      <use xlink:href="#DejaVuSans-30" x="304.394531"/>
      <use xlink:href="#DejaVuSans-30" x="368.017578"/>
      <use xlink:href="#DejaVuSans-31" x="431.640625"/>
     </g>
    </g>
    <g id="line2d_38">
     <path d="M 616.309375 84.012813 
L 626.309375 84.012813 
L 636.309375 84.012813 
" style="fill: none; stroke: #2ca02c; stroke-width: 1.5; stroke-linecap: square"/>
     <g>
      <use xlink:href="#m0babe23d00" x="626.309375" y="84.012813" style="fill: #2ca02c; stroke: #2ca02c"/>
     </g>
    </g>
    <g id="text_22">
     <!-- LR=0.002 -->
     <g transform="translate(644.309375 87.512813) scale(0.1 -0.1)">
      <use xlink:href="#DejaVuSans-4c"/>
      <use xlink:href="#DejaVuSans-52" x="55.712891"/>
      <use xlink:href="#DejaVuSans-3d" x="125.195312"/>
      <use xlink:href="#DejaVuSans-30" x="208.984375"/>
      <use xlink:href="#DejaVuSans-2e" x="272.607422"/>
      <use xlink:href="#DejaVuSans-30" x="304.394531"/>
      <use xlink:href="#DejaVuSans-30" x="368.017578"/>
      <use xlink:href="#DejaVuSans-32" x="431.640625"/>
     </g>
    </g>
    <g id="line2d_39">
     <path d="M 616.309375 98.690938 
L 626.309375 98.690938 
L 636.309375 98.690938 
" style="fill: none; stroke: #d62728; stroke-width: 1.5; stroke-linecap: square"/>
     <g>
      <use xlink:href="#mbdb0cdb5ae" x="626.309375" y="98.690938" style="fill: #d62728; stroke: #d62728"/>
     </g>
    </g>
    <g id="text_23">
     <!-- LR=0.01 -->
     <g transform="translate(644.309375 102.190938) scale(0.1 -0.1)">
      <use xlink:href="#DejaVuSans-4c"/>
      <use xlink:href="#DejaVuSans-52" x="55.712891"/>
      <use xlink:href="#DejaVuSans-3d" x="125.195312"/>
      <use xlink:href="#DejaVuSans-30" x="208.984375"/>
      <use xlink:href="#DejaVuSans-2e" x="272.607422"/>
      <use xlink:href="#DejaVuSans-30" x="304.394531"/>
      <use xlink:href="#DejaVuSans-31" x="368.017578"/>
     </g>
    </g>
    <g id="line2d_40">
     <path d="M 616.309375 113.369063 
L 626.309375 113.369063 
L 636.309375 113.369063 
" style="fill: none; stroke: #9467bd; stroke-width: 1.5; stroke-linecap: square"/>
     <g>
      <use xlink:href="#m494ea5782d" x="626.309375" y="113.369063" style="fill: #9467bd; stroke: #9467bd"/>
     </g>
    </g>
    <g id="text_24">
     <!-- LR=0.1 -->
     <g transform="translate(644.309375 116.869063) scale(0.1 -0.1)">
      <use xlink:href="#DejaVuSans-4c"/>
      <use xlink:href="#DejaVuSans-52" x="55.712891"/>
      <use xlink:href="#DejaVuSans-3d" x="125.195312"/>
      <use xlink:href="#DejaVuSans-30" x="208.984375"/>
      <use xlink:href="#DejaVuSans-2e" x="272.607422"/>
      <use xlink:href="#DejaVuSans-31" x="304.394531"/>
     </g>
    </g>
   </g>
  </g>
 </g>
 <defs>
  <clipPath id="p4cc7642f8e">
   <rect x="47.72" y="26.88" width="661.48" height="363.16"/>
  </clipPath>
 </defs>
</svg>
