<?xml version="1.0" encoding="utf-8" standalone="no"?>
<!DOCTYPE svg PUBLIC "-//W3C//DTD SVG 1.1//EN"
  "http://www.w3.org/Graphics/SVG/1.1/DTD/svg11.dtd">
<svg xmlns:xlink="http://www.w3.org/1999/xlink" width="720pt" height="432pt" viewBox="0 0 720 432" xmlns="http://www.w3.org/2000/svg" version="1.1">
 <metadata>
  <rdf:RDF xmlns:dc="http://purl.org/dc/elements/1.1/" xmlns:cc="http://creativecommons.org/ns#" xmlns:rdf="http://www.w3.org/1999/02/22-rdf-syntax-ns#">
   <cc:Work>
    <dc:type rdf:resource="http://purl.org/dc/dcmitype/StillImage"/>
    <dc:date>2024-11-26T10:19:46.303161</dc:date>
    <dc:format>image/svg+xml</dc:format>
    <dc:creator>
     <cc:Agent>
      <dc:title>Matplotlib v3.6.2, https://matplotlib.org/</dc:title>
     </cc:Agent>
    </dc:creator>
   </cc:Work>
  </rdf:RDF>
 </metadata>
 <defs>
  <style type="text/css">*{stroke-linejoin: round; stroke-linecap: butt}</style>
 </defs>
 <g id="figure_1">
  <g id="patch_1">
   <path d="M 0 432 
L 720 432 
L 720 0 
L 0 0 
z
" style="fill: #ffffff"/>
  </g>
  <g id="axes_1">
   <g id="patch_2">
    <path d="M 47.72 390.04 
L 709.2 390.04 
L 709.2 26.88 
L 47.72 26.88 
z
" style="fill: #ffffff"/>
   </g>
   <g id="matplotlib.axis_1">
    <g id="xtick_1">
     <g id="line2d_1">
      <path d="M 62.368159 390.04 
L 62.368159 26.88 
" clip-path="url(#pbd85835ad8)" style="fill: none; stroke: #b0b0b0; stroke-width: 0.8; stroke-linecap: square"/>
     </g>
     <g id="line2d_2">
      <defs>
       <path id="m521234a64d" d="M 0 0 
L 0 3.5 
" style="stroke: #000000; stroke-width: 0.8"/>
      </defs>
      <g>
       <use xlink:href="#m521234a64d" x="62.368159" y="390.04" style="stroke: #000000; stroke-width: 0.8"/>
      </g>
     </g>
     <g id="text_1">
      <!-- 0 -->
      <g transform="translate(59.186909 404.638438) scale(0.1 -0.1)">
       <defs>
        <path id="DejaVuSans-30" d="M 2034 4250 
Q 1547 4250 1301 3770 
Q 1056 3291 1056 2328 
Q 1056 1369 1301 889 
Q 1547 409 2034 409 
Q 2525 409 2770 889 
Q 3016 1369 3016 2328 
Q 3016 3291 2770 3770 
Q 2525 4250 2034 4250 
z
M 2034 4750 
Q 2819 4750 3233 4129 
Q 3647 3509 3647 2328 
Q 3647 1150 3233 529 
Q 2819 -91 2034 -91 
Q 1250 -91 836 529 
Q 422 1150 422 2328 
Q 422 3509 836 4129 
Q 1250 4750 2034 4750 
z
" transform="scale(0.015625)"/>
       </defs>
       <use xlink:href="#DejaVuSans-30"/>
      </g>
     </g>
    </g>
    <g id="xtick_2">
     <g id="line2d_3">
      <path d="M 139.46373 390.04 
L 139.46373 26.88 
" clip-path="url(#pbd85835ad8)" style="fill: none; stroke: #b0b0b0; stroke-width: 0.8; stroke-linecap: square"/>
     </g>
     <g id="line2d_4">
      <g>
       <use xlink:href="#m521234a64d" x="139.46373" y="390.04" style="stroke: #000000; stroke-width: 0.8"/>
      </g>
     </g>
     <g id="text_2">
      <!-- 5 -->
      <g transform="translate(136.28248 404.638438) scale(0.1 -0.1)">
       <defs>
        <path id="DejaVuSans-35" d="M 691 4666 
L 3169 4666 
L 3169 4134 
L 1269 4134 
L 1269 2991 
Q 1406 3038 1543 3061 
Q 1681 3084 1819 3084 
Q 2600 3084 3056 2656 
Q 3513 2228 3513 1497 
Q 3513 744 3044 326 
Q 2575 -91 1722 -91 
Q 1428 -91 1123 -41 
Q 819 9 494 109 
L 494 744 
Q 775 591 1075 516 
Q 1375 441 1709 441 
Q 2250 441 2565 725 
Q 2881 1009 2881 1497 
Q 2881 1984 2565 2268 
Q 2250 2553 1709 2553 
Q 1456 2553 1204 2497 
Q 953 2441 691 2322 
L 691 4666 
z
" transform="scale(0.015625)"/>
       </defs>
       <use xlink:href="#DejaVuSans-35"/>
      </g>
     </g>
    </g>
    <g id="xtick_3">
     <g id="line2d_5">
      <path d="M 216.559301 390.04 
L 216.559301 26.88 
" clip-path="url(#pbd85835ad8)" style="fill: none; stroke: #b0b0b0; stroke-width: 0.8; stroke-linecap: square"/>
     </g>
     <g id="line2d_6">
      <g>
       <use xlink:href="#m521234a64d" x="216.559301" y="390.04" style="stroke: #000000; stroke-width: 0.8"/>
      </g>
     </g>
     <g id="text_3">
      <!-- 10 -->
      <g transform="translate(210.196801 404.638438) scale(0.1 -0.1)">
       <defs>
        <path id="DejaVuSans-31" d="M 794 531 
L 1825 531 
L 1825 4091 
L 703 3866 
L 703 4441 
L 1819 4666 
L 2450 4666 
L 2450 531 
L 3481 531 
L 3481 0 
L 794 0 
L 794 531 
z
" transform="scale(0.015625)"/>
       </defs>
       <use xlink:href="#DejaVuSans-31"/>
       <use xlink:href="#DejaVuSans-30" x="63.623047"/>
      </g>
     </g>
    </g>
    <g id="xtick_4">
     <g id="line2d_7">
      <path d="M 293.654872 390.04 
L 293.654872 26.88 
" clip-path="url(#pbd85835ad8)" style="fill: none; stroke: #b0b0b0; stroke-width: 0.8; stroke-linecap: square"/>
     </g>
     <g id="line2d_8">
      <g>
       <use xlink:href="#m521234a64d" x="293.654872" y="390.04" style="stroke: #000000; stroke-width: 0.8"/>
      </g>
     </g>
     <g id="text_4">
      <!-- 15 -->
      <g transform="translate(287.292372 404.638438) scale(0.1 -0.1)">
       <use xlink:href="#DejaVuSans-31"/>
       <use xlink:href="#DejaVuSans-35" x="63.623047"/>
      </g>
     </g>
    </g>
    <g id="xtick_5">
     <g id="line2d_9">
      <path d="M 370.750443 390.04 
L 370.750443 26.88 
" clip-path="url(#pbd85835ad8)" style="fill: none; stroke: #b0b0b0; stroke-width: 0.8; stroke-linecap: square"/>
     </g>
     <g id="line2d_10">
      <g>
       <use xlink:href="#m521234a64d" x="370.750443" y="390.04" style="stroke: #000000; stroke-width: 0.8"/>
      </g>
     </g>
     <g id="text_5">
      <!-- 20 -->
      <g transform="translate(364.387943 404.638438) scale(0.1 -0.1)">
       <defs>
        <path id="DejaVuSans-32" d="M 1228 531 
L 3431 531 
L 3431 0 
L 469 0 
L 469 531 
Q 828 903 1448 1529 
Q 2069 2156 2228 2338 
Q 2531 2678 2651 2914 
Q 2772 3150 2772 3378 
Q 2772 3750 2511 3984 
Q 2250 4219 1831 4219 
Q 1534 4219 1204 4116 
Q 875 4013 500 3803 
L 500 4441 
Q 881 4594 1212 4672 
Q 1544 4750 1819 4750 
Q 2544 4750 2975 4387 
Q 3406 4025 3406 3419 
Q 3406 3131 3298 2873 
Q 3191 2616 2906 2266 
Q 2828 2175 2409 1742 
Q 1991 1309 1228 531 
z
" transform="scale(0.015625)"/>
       </defs>
       <use xlink:href="#DejaVuSans-32"/>
       <use xlink:href="#DejaVuSans-30" x="63.623047"/>
      </g>
     </g>
    </g>
    <g id="xtick_6">
     <g id="line2d_11">
      <path d="M 447.846014 390.04 
L 447.846014 26.88 
" clip-path="url(#pbd85835ad8)" style="fill: none; stroke: #b0b0b0; stroke-width: 0.8; stroke-linecap: square"/>
     </g>
     <g id="line2d_12">
      <g>
       <use xlink:href="#m521234a64d" x="447.846014" y="390.04" style="stroke: #000000; stroke-width: 0.8"/>
      </g>
     </g>
     <g id="text_6">
      <!-- 25 -->
      <g transform="translate(441.483514 404.638438) scale(0.1 -0.1)">
       <use xlink:href="#DejaVuSans-32"/>
       <use xlink:href="#DejaVuSans-35" x="63.623047"/>
      </g>
     </g>
    </g>
    <g id="xtick_7">
     <g id="line2d_13">
      <path d="M 524.941585 390.04 
L 524.941585 26.88 
" clip-path="url(#pbd85835ad8)" style="fill: none; stroke: #b0b0b0; stroke-width: 0.8; stroke-linecap: square"/>
     </g>
     <g id="line2d_14">
      <g>
       <use xlink:href="#m521234a64d" x="524.941585" y="390.04" style="stroke: #000000; stroke-width: 0.8"/>
      </g>
     </g>
     <g id="text_7">
      <!-- 30 -->
      <g transform="translate(518.579085 404.638438) scale(0.1 -0.1)">
       <defs>
        <path id="DejaVuSans-33" d="M 2597 2516 
Q 3050 2419 3304 2112 
Q 3559 1806 3559 1356 
Q 3559 666 3084 287 
Q 2609 -91 1734 -91 
Q 1441 -91 1130 -33 
Q 819 25 488 141 
L 488 750 
Q 750 597 1062 519 
Q 1375 441 1716 441 
Q 2309 441 2620 675 
Q 2931 909 2931 1356 
Q 2931 1769 2642 2001 
Q 2353 2234 1838 2234 
L 1294 2234 
L 1294 2753 
L 1863 2753 
Q 2328 2753 2575 2939 
Q 2822 3125 2822 3475 
Q 2822 3834 2567 4026 
Q 2313 4219 1838 4219 
Q 1578 4219 1281 4162 
Q 984 4106 628 3988 
L 628 4550 
Q 988 4650 1302 4700 
Q 1616 4750 1894 4750 
Q 2613 4750 3031 4423 
Q 3450 4097 3450 3541 
Q 3450 3153 3228 2886 
Q 3006 2619 2597 2516 
z
" transform="scale(0.015625)"/>
       </defs>
       <use xlink:href="#DejaVuSans-33"/>
       <use xlink:href="#DejaVuSans-30" x="63.623047"/>
      </g>
     </g>
    </g>
    <g id="xtick_8">
     <g id="line2d_15">
      <path d="M 602.037156 390.04 
L 602.037156 26.88 
" clip-path="url(#pbd85835ad8)" style="fill: none; stroke: #b0b0b0; stroke-width: 0.8; stroke-linecap: square"/>
     </g>
     <g id="line2d_16">
      <g>
       <use xlink:href="#m521234a64d" x="602.037156" y="390.04" style="stroke: #000000; stroke-width: 0.8"/>
      </g>
     </g>
     <g id="text_8">
      <!-- 35 -->
      <g transform="translate(595.674656 404.638438) scale(0.1 -0.1)">
       <use xlink:href="#DejaVuSans-33"/>
       <use xlink:href="#DejaVuSans-35" x="63.623047"/>
      </g>
     </g>
    </g>
    <g id="xtick_9">
     <g id="line2d_17">
      <path d="M 679.132727 390.04 
L 679.132727 26.88 
" clip-path="url(#pbd85835ad8)" style="fill: none; stroke: #b0b0b0; stroke-width: 0.8; stroke-linecap: square"/>
     </g>
     <g id="line2d_18">
      <g>
       <use xlink:href="#m521234a64d" x="679.132727" y="390.04" style="stroke: #000000; stroke-width: 0.8"/>
      </g>
     </g>
     <g id="text_9">
      <!-- 40 -->
      <g transform="translate(672.770227 404.638438) scale(0.1 -0.1)">
       <defs>
        <path id="DejaVuSans-34" d="M 2419 4116 
L 825 1625 
L 2419 1625 
L 2419 4116 
z
M 2253 4666 
L 3047 4666 
L 3047 1625 
L 3713 1625 
L 3713 1100 
L 3047 1100 
L 3047 0 
L 2419 0 
L 2419 1100 
L 313 1100 
L 313 1709 
L 2253 4666 
z
" transform="scale(0.015625)"/>
       </defs>
       <use xlink:href="#DejaVuSans-34"/>
       <use xlink:href="#DejaVuSans-30" x="63.623047"/>
      </g>
     </g>
    </g>
    <g id="text_10">
     <!-- Epoch -->
     <g transform="translate(363.149063 418.316562) scale(0.1 -0.1)">
      <defs>
       <path id="DejaVuSans-45" d="M 628 4666 
L 3578 4666 
L 3578 4134 
L 1259 4134 
L 1259 2753 
L 3481 2753 
L 3481 2222 
L 1259 2222 
L 1259 531 
L 3634 531 
L 3634 0 
L 628 0 
L 628 4666 
z
" transform="scale(0.015625)"/>
       <path id="DejaVuSans-70" d="M 1159 525 
L 1159 -1331 
L 581 -1331 
L 581 3500 
L 1159 3500 
L 1159 2969 
Q 1341 3281 1617 3432 
Q 1894 3584 2278 3584 
Q 2916 3584 3314 3078 
Q 3713 2572 3713 1747 
Q 3713 922 3314 415 
Q 2916 -91 2278 -91 
Q 1894 -91 1617 61 
Q 1341 213 1159 525 
z
M 3116 1747 
Q 3116 2381 2855 2742 
Q 2594 3103 2138 3103 
Q 1681 3103 1420 2742 
Q 1159 2381 1159 1747 
Q 1159 1113 1420 752 
Q 1681 391 2138 391 
Q 2594 391 2855 752 
Q 3116 1113 3116 1747 
z
" transform="scale(0.015625)"/>
       <path id="DejaVuSans-6f" d="M 1959 3097 
Q 1497 3097 1228 2736 
Q 959 2375 959 1747 
Q 959 1119 1226 758 
Q 1494 397 1959 397 
Q 2419 397 2687 759 
Q 2956 1122 2956 1747 
Q 2956 2369 2687 2733 
Q 2419 3097 1959 3097 
z
M 1959 3584 
Q 2709 3584 3137 3096 
Q 3566 2609 3566 1747 
Q 3566 888 3137 398 
Q 2709 -91 1959 -91 
Q 1206 -91 779 398 
Q 353 888 353 1747 
Q 353 2609 779 3096 
Q 1206 3584 1959 3584 
z
" transform="scale(0.015625)"/>
       <path id="DejaVuSans-63" d="M 3122 3366 
L 3122 2828 
Q 2878 2963 2633 3030 
Q 2388 3097 2138 3097 
Q 1578 3097 1268 2742 
Q 959 2388 959 1747 
Q 959 1106 1268 751 
Q 1578 397 2138 397 
Q 2388 397 2633 464 
Q 2878 531 3122 666 
L 3122 134 
Q 2881 22 2623 -34 
Q 2366 -91 2075 -91 
Q 1284 -91 818 406 
Q 353 903 353 1747 
Q 353 2603 823 3093 
Q 1294 3584 2113 3584 
Q 2378 3584 2631 3529 
Q 2884 3475 3122 3366 
z
" transform="scale(0.015625)"/>
       <path id="DejaVuSans-68" d="M 3513 2113 
L 3513 0 
L 2938 0 
L 2938 2094 
Q 2938 2591 2744 2837 
Q 2550 3084 2163 3084 
Q 1697 3084 1428 2787 
Q 1159 2491 1159 1978 
L 1159 0 
L 581 0 
L 581 4863 
L 1159 4863 
L 1159 2956 
Q 1366 3272 1645 3428 
Q 1925 3584 2291 3584 
Q 2894 3584 3203 3211 
Q 3513 2838 3513 2113 
z
" transform="scale(0.015625)"/>
      </defs>
      <use xlink:href="#DejaVuSans-45"/>
      <use xlink:href="#DejaVuSans-70" x="63.183594"/>
      <use xlink:href="#DejaVuSans-6f" x="126.660156"/>
      <use xlink:href="#DejaVuSans-63" x="187.841797"/>
      <use xlink:href="#DejaVuSans-68" x="242.822266"/>
     </g>
    </g>
   </g>
   <g id="matplotlib.axis_2">
    <g id="ytick_1">
     <g id="line2d_19">
      <path d="M 47.72 338.676964 
L 709.2 338.676964 
" clip-path="url(#pbd85835ad8)" style="fill: none; stroke: #b0b0b0; stroke-width: 0.8; stroke-linecap: square"/>
     </g>
     <g id="line2d_20">
      <defs>
       <path id="mb449379578" d="M 0 0 
L -3.5 0 
" style="stroke: #000000; stroke-width: 0.8"/>
      </defs>
      <g>
       <use xlink:href="#mb449379578" x="47.72" y="338.676964" style="stroke: #000000; stroke-width: 0.8"/>
      </g>
     </g>
     <g id="text_11">
      <!-- 0.1 -->
      <g transform="translate(24.816875 342.476182) scale(0.1 -0.1)">
       <defs>
        <path id="DejaVuSans-2e" d="M 684 794 
L 1344 794 
L 1344 0 
L 684 0 
L 684 794 
z
" transform="scale(0.015625)"/>
       </defs>
       <use xlink:href="#DejaVuSans-30"/>
       <use xlink:href="#DejaVuSans-2e" x="63.623047"/>
       <use xlink:href="#DejaVuSans-31" x="95.410156"/>
      </g>
     </g>
    </g>
    <g id="ytick_2">
     <g id="line2d_21">
      <path d="M 47.72 280.777024 
L 709.2 280.777024 
" clip-path="url(#pbd85835ad8)" style="fill: none; stroke: #b0b0b0; stroke-width: 0.8; stroke-linecap: square"/>
     </g>
     <g id="line2d_22">
      <g>
       <use xlink:href="#mb449379578" x="47.72" y="280.777024" style="stroke: #000000; stroke-width: 0.8"/>
      </g>
     </g>
     <g id="text_12">
      <!-- 0.2 -->
      <g transform="translate(24.816875 284.576243) scale(0.1 -0.1)">
       <use xlink:href="#DejaVuSans-30"/>
       <use xlink:href="#DejaVuSans-2e" x="63.623047"/>
       <use xlink:href="#DejaVuSans-32" x="95.410156"/>
      </g>
     </g>
    </g>
    <g id="ytick_3">
     <g id="line2d_23">
      <path d="M 47.72 222.877085 
L 709.2 222.877085 
" clip-path="url(#pbd85835ad8)" style="fill: none; stroke: #b0b0b0; stroke-width: 0.8; stroke-linecap: square"/>
     </g>
     <g id="line2d_24">
      <g>
       <use xlink:href="#mb449379578" x="47.72" y="222.877085" style="stroke: #000000; stroke-width: 0.8"/>
      </g>
     </g>
     <g id="text_13">
      <!-- 0.3 -->
      <g transform="translate(24.816875 226.676304) scale(0.1 -0.1)">
       <use xlink:href="#DejaVuSans-30"/>
       <use xlink:href="#DejaVuSans-2e" x="63.623047"/>
       <use xlink:href="#DejaVuSans-33" x="95.410156"/>
      </g>
     </g>
    </g>
    <g id="ytick_4">
     <g id="line2d_25">
      <path d="M 47.72 164.977145 
L 709.2 164.977145 
" clip-path="url(#pbd85835ad8)" style="fill: none; stroke: #b0b0b0; stroke-width: 0.8; stroke-linecap: square"/>
     </g>
     <g id="line2d_26">
      <g>
       <use xlink:href="#mb449379578" x="47.72" y="164.977145" style="stroke: #000000; stroke-width: 0.8"/>
      </g>
     </g>
     <g id="text_14">
      <!-- 0.4 -->
      <g transform="translate(24.816875 168.776364) scale(0.1 -0.1)">
       <use xlink:href="#DejaVuSans-30"/>
       <use xlink:href="#DejaVuSans-2e" x="63.623047"/>
       <use xlink:href="#DejaVuSans-34" x="95.410156"/>
      </g>
     </g>
    </g>
    <g id="ytick_5">
     <g id="line2d_27">
      <path d="M 47.72 107.077206 
L 709.2 107.077206 
" clip-path="url(#pbd85835ad8)" style="fill: none; stroke: #b0b0b0; stroke-width: 0.8; stroke-linecap: square"/>
     </g>
     <g id="line2d_28">
      <g>
       <use xlink:href="#mb449379578" x="47.72" y="107.077206" style="stroke: #000000; stroke-width: 0.8"/>
      </g>
     </g>
     <g id="text_15">
      <!-- 0.5 -->
      <g transform="translate(24.816875 110.876425) scale(0.1 -0.1)">
       <use xlink:href="#DejaVuSans-30"/>
       <use xlink:href="#DejaVuSans-2e" x="63.623047"/>
       <use xlink:href="#DejaVuSans-35" x="95.410156"/>
      </g>
     </g>
    </g>
    <g id="ytick_6">
     <g id="line2d_29">
      <path d="M 47.72 49.177267 
L 709.2 49.177267 
" clip-path="url(#pbd85835ad8)" style="fill: none; stroke: #b0b0b0; stroke-width: 0.8; stroke-linecap: square"/>
     </g>
     <g id="line2d_30">
      <g>
       <use xlink:href="#mb449379578" x="47.72" y="49.177267" style="stroke: #000000; stroke-width: 0.8"/>
      </g>
     </g>
     <g id="text_16">
      <!-- 0.6 -->
      <g transform="translate(24.816875 52.976485) scale(0.1 -0.1)">
       <defs>
        <path id="DejaVuSans-36" d="M 2113 2584 
Q 1688 2584 1439 2293 
Q 1191 2003 1191 1497 
Q 1191 994 1439 701 
Q 1688 409 2113 409 
Q 2538 409 2786 701 
Q 3034 994 3034 1497 
Q 3034 2003 2786 2293 
Q 2538 2584 2113 2584 
z
M 3366 4563 
L 3366 3988 
Q 3128 4100 2886 4159 
Q 2644 4219 2406 4219 
Q 1781 4219 1451 3797 
Q 1122 3375 1075 2522 
Q 1259 2794 1537 2939 
Q 1816 3084 2150 3084 
Q 2853 3084 3261 2657 
Q 3669 2231 3669 1497 
Q 3669 778 3244 343 
Q 2819 -91 2113 -91 
Q 1303 -91 875 529 
Q 447 1150 447 2328 
Q 447 3434 972 4092 
Q 1497 4750 2381 4750 
Q 2619 4750 2861 4703 
Q 3103 4656 3366 4563 
z
" transform="scale(0.015625)"/>
       </defs>
       <use xlink:href="#DejaVuSans-30"/>
       <use xlink:href="#DejaVuSans-2e" x="63.623047"/>
       <use xlink:href="#DejaVuSans-36" x="95.410156"/>
      </g>
     </g>
    </g>
    <g id="text_17">
     <!-- Reconstruction Error -->
     <g transform="translate(18.737187 259.652969) rotate(-90) scale(0.1 -0.1)">
      <defs>
       <path id="DejaVuSans-52" d="M 2841 2188 
Q 3044 2119 3236 1894 
Q 3428 1669 3622 1275 
L 4263 0 
L 3584 0 
L 2988 1197 
Q 2756 1666 2539 1819 
Q 2322 1972 1947 1972 
L 1259 1972 
L 1259 0 
L 628 0 
L 628 4666 
L 2053 4666 
Q 2853 4666 3247 4331 
Q 3641 3997 3641 3322 
Q 3641 2881 3436 2590 
Q 3231 2300 2841 2188 
z
M 1259 4147 
L 1259 2491 
L 2053 2491 
Q 2509 2491 2742 2702 
Q 2975 2913 2975 3322 
Q 2975 3731 2742 3939 
Q 2509 4147 2053 4147 
L 1259 4147 
z
" transform="scale(0.015625)"/>
       <path id="DejaVuSans-65" d="M 3597 1894 
L 3597 1613 
L 953 1613 
Q 991 1019 1311 708 
Q 1631 397 2203 397 
Q 2534 397 2845 478 
Q 3156 559 3463 722 
L 3463 178 
Q 3153 47 2828 -22 
Q 2503 -91 2169 -91 
Q 1331 -91 842 396 
Q 353 884 353 1716 
Q 353 2575 817 3079 
Q 1281 3584 2069 3584 
Q 2775 3584 3186 3129 
Q 3597 2675 3597 1894 
z
M 3022 2063 
Q 3016 2534 2758 2815 
Q 2500 3097 2075 3097 
Q 1594 3097 1305 2825 
Q 1016 2553 972 2059 
L 3022 2063 
z
" transform="scale(0.015625)"/>
       <path id="DejaVuSans-6e" d="M 3513 2113 
L 3513 0 
L 2938 0 
L 2938 2094 
Q 2938 2591 2744 2837 
Q 2550 3084 2163 3084 
Q 1697 3084 1428 2787 
Q 1159 2491 1159 1978 
L 1159 0 
L 581 0 
L 581 3500 
L 1159 3500 
L 1159 2956 
Q 1366 3272 1645 3428 
Q 1925 3584 2291 3584 
Q 2894 3584 3203 3211 
Q 3513 2838 3513 2113 
z
" transform="scale(0.015625)"/>
       <path id="DejaVuSans-73" d="M 2834 3397 
L 2834 2853 
Q 2591 2978 2328 3040 
Q 2066 3103 1784 3103 
Q 1356 3103 1142 2972 
Q 928 2841 928 2578 
Q 928 2378 1081 2264 
Q 1234 2150 1697 2047 
L 1894 2003 
Q 2506 1872 2764 1633 
Q 3022 1394 3022 966 
Q 3022 478 2636 193 
Q 2250 -91 1575 -91 
Q 1294 -91 989 -36 
Q 684 19 347 128 
L 347 722 
Q 666 556 975 473 
Q 1284 391 1588 391 
Q 1994 391 2212 530 
Q 2431 669 2431 922 
Q 2431 1156 2273 1281 
Q 2116 1406 1581 1522 
L 1381 1569 
Q 847 1681 609 1914 
Q 372 2147 372 2553 
Q 372 3047 722 3315 
Q 1072 3584 1716 3584 
Q 2034 3584 2315 3537 
Q 2597 3491 2834 3397 
z
" transform="scale(0.015625)"/>
       <path id="DejaVuSans-74" d="M 1172 4494 
L 1172 3500 
L 2356 3500 
L 2356 3053 
L 1172 3053 
L 1172 1153 
Q 1172 725 1289 603 
Q 1406 481 1766 481 
L 2356 481 
L 2356 0 
L 1766 0 
Q 1100 0 847 248 
Q 594 497 594 1153 
L 594 3053 
L 172 3053 
L 172 3500 
L 594 3500 
L 594 4494 
L 1172 4494 
z
" transform="scale(0.015625)"/>
       <path id="DejaVuSans-72" d="M 2631 2963 
Q 2534 3019 2420 3045 
Q 2306 3072 2169 3072 
Q 1681 3072 1420 2755 
Q 1159 2438 1159 1844 
L 1159 0 
L 581 0 
L 581 3500 
L 1159 3500 
L 1159 2956 
Q 1341 3275 1631 3429 
Q 1922 3584 2338 3584 
Q 2397 3584 2469 3576 
Q 2541 3569 2628 3553 
L 2631 2963 
z
" transform="scale(0.015625)"/>
       <path id="DejaVuSans-75" d="M 544 1381 
L 544 3500 
L 1119 3500 
L 1119 1403 
Q 1119 906 1312 657 
Q 1506 409 1894 409 
Q 2359 409 2629 706 
Q 2900 1003 2900 1516 
L 2900 3500 
L 3475 3500 
L 3475 0 
L 2900 0 
L 2900 538 
Q 2691 219 2414 64 
Q 2138 -91 1772 -91 
Q 1169 -91 856 284 
Q 544 659 544 1381 
z
M 1991 3584 
L 1991 3584 
z
" transform="scale(0.015625)"/>
       <path id="DejaVuSans-69" d="M 603 3500 
L 1178 3500 
L 1178 0 
L 603 0 
L 603 3500 
z
M 603 4863 
L 1178 4863 
L 1178 4134 
L 603 4134 
L 603 4863 
z
" transform="scale(0.015625)"/>
       <path id="DejaVuSans-20" transform="scale(0.015625)"/>
      </defs>
      <use xlink:href="#DejaVuSans-52"/>
      <use xlink:href="#DejaVuSans-65" x="64.982422"/>
      <use xlink:href="#DejaVuSans-63" x="126.505859"/>
      <use xlink:href="#DejaVuSans-6f" x="181.486328"/>
      <use xlink:href="#DejaVuSans-6e" x="242.667969"/>
      <use xlink:href="#DejaVuSans-73" x="306.046875"/>
      <use xlink:href="#DejaVuSans-74" x="358.146484"/>
      <use xlink:href="#DejaVuSans-72" x="397.355469"/>
      <use xlink:href="#DejaVuSans-75" x="438.46875"/>
      <use xlink:href="#DejaVuSans-63" x="501.847656"/>
      <use xlink:href="#DejaVuSans-74" x="556.828125"/>
      <use xlink:href="#DejaVuSans-69" x="596.037109"/>
      <use xlink:href="#DejaVuSans-6f" x="623.820312"/>
      <use xlink:href="#DejaVuSans-6e" x="685.001953"/>
      <use xlink:href="#DejaVuSans-20" x="748.380859"/>
      <use xlink:href="#DejaVuSans-45" x="780.167969"/>
      <use xlink:href="#DejaVuSans-72" x="843.351562"/>
      <use xlink:href="#DejaVuSans-72" x="882.714844"/>
      <use xlink:href="#DejaVuSans-6f" x="921.578125"/>
      <use xlink:href="#DejaVuSans-72" x="982.759766"/>
     </g>
    </g>
   </g>
   <g id="line2d_31">
    <path d="M 77.787273 43.387273 
L 93.206387 60.757255 
L 108.625501 83.91723 
L 124.044615 101.287212 
L 139.46373 118.657194 
L 154.882844 136.027176 
L 170.301958 147.607164 
L 185.721072 164.977145 
L 201.140186 176.557133 
L 216.559301 193.927115 
L 231.978415 205.507103 
L 247.397529 217.087091 
L 262.816643 228.667079 
L 278.235758 240.247067 
L 293.654872 251.827055 
L 309.073986 260.512046 
L 324.4931 269.197036 
L 339.912214 274.98703 
L 355.331329 283.672021 
L 370.750443 292.357012 
L 386.169557 301.042003 
L 401.588671 306.831997 
L 417.007786 312.621991 
L 432.4269 318.411985 
L 447.846014 322.464981 
L 463.265128 327.096976 
L 478.684242 329.991973 
L 494.103357 332.88697 
L 509.522471 335.781967 
L 524.941585 345.624956 
L 540.360699 349.098953 
L 555.779814 351.41495 
L 571.198928 353.730948 
L 586.618042 356.046946 
L 602.037156 358.362943 
L 617.45627 360.678941 
L 632.875385 362.415939 
L 648.294499 364.731936 
L 663.713613 366.468935 
L 679.132727 368.784932 
" clip-path="url(#pbd85835ad8)" style="fill: none; stroke: #1f77b4; stroke-width: 1.5; stroke-linecap: square"/>
    <defs>
     <path id="m48dad0d394" d="M 0 3 
C 0.795609 3 1.55874 2.683901 2.12132 2.12132 
C 2.683901 1.55874 3 0.795609 3 0 
C 3 -0.795609 2.683901 -1.55874 2.12132 -2.12132 
C 1.55874 -2.683901 0.795609 -3 0 -3 
C -0.795609 -3 -1.55874 -2.683901 -2.12132 -2.12132 
C -2.683901 -1.55874 -3 -0.795609 -3 0 
C -3 0.795609 -2.683901 1.55874 -2.12132 2.12132 
C -1.55874 2.683901 -0.795609 3 0 3 
z
" style="stroke: #1f77b4"/>
    </defs>
    <g clip-path="url(#pbd85835ad8)">
     <use xlink:href="#m48dad0d394" x="77.787273" y="43.387273" style="fill: #1f77b4; stroke: #1f77b4"/>
     <use xlink:href="#m48dad0d394" x="93.206387" y="60.757255" style="fill: #1f77b4; stroke: #1f77b4"/>
     <use xlink:href="#m48dad0d394" x="108.625501" y="83.91723" style="fill: #1f77b4; stroke: #1f77b4"/>
     <use xlink:href="#m48dad0d394" x="124.044615" y="101.287212" style="fill: #1f77b4; stroke: #1f77b4"/>
     <use xlink:href="#m48dad0d394" x="139.46373" y="118.657194" style="fill: #1f77b4; stroke: #1f77b4"/>
     <use xlink:href="#m48dad0d394" x="154.882844" y="136.027176" style="fill: #1f77b4; stroke: #1f77b4"/>
     <use xlink:href="#m48dad0d394" x="170.301958" y="147.607164" style="fill: #1f77b4; stroke: #1f77b4"/>
     <use xlink:href="#m48dad0d394" x="185.721072" y="164.977145" style="fill: #1f77b4; stroke: #1f77b4"/>
     <use xlink:href="#m48dad0d394" x="201.140186" y="176.557133" style="fill: #1f77b4; stroke: #1f77b4"/>
     <use xlink:href="#m48dad0d394" x="216.559301" y="193.927115" style="fill: #1f77b4; stroke: #1f77b4"/>
     <use xlink:href="#m48dad0d394" x="231.978415" y="205.507103" style="fill: #1f77b4; stroke: #1f77b4"/>
     <use xlink:href="#m48dad0d394" x="247.397529" y="217.087091" style="fill: #1f77b4; stroke: #1f77b4"/>
     <use xlink:href="#m48dad0d394" x="262.816643" y="228.667079" style="fill: #1f77b4; stroke: #1f77b4"/>
     <use xlink:href="#m48dad0d394" x="278.235758" y="240.247067" style="fill: #1f77b4; stroke: #1f77b4"/>
     <use xlink:href="#m48dad0d394" x="293.654872" y="251.827055" style="fill: #1f77b4; stroke: #1f77b4"/>
     <use xlink:href="#m48dad0d394" x="309.073986" y="260.512046" style="fill: #1f77b4; stroke: #1f77b4"/>
     <use xlink:href="#m48dad0d394" x="324.4931" y="269.197036" style="fill: #1f77b4; stroke: #1f77b4"/>
     <use xlink:href="#m48dad0d394" x="339.912214" y="274.98703" style="fill: #1f77b4; stroke: #1f77b4"/>
     <use xlink:href="#m48dad0d394" x="355.331329" y="283.672021" style="fill: #1f77b4; stroke: #1f77b4"/>
     <use xlink:href="#m48dad0d394" x="370.750443" y="292.357012" style="fill: #1f77b4; stroke: #1f77b4"/>
     <use xlink:href="#m48dad0d394" x="386.169557" y="301.042003" style="fill: #1f77b4; stroke: #1f77b4"/>
     <use xlink:href="#m48dad0d394" x="401.588671" y="306.831997" style="fill: #1f77b4; stroke: #1f77b4"/>
     <use xlink:href="#m48dad0d394" x="417.007786" y="312.621991" style="fill: #1f77b4; stroke: #1f77b4"/>
     <use xlink:href="#m48dad0d394" x="432.4269" y="318.411985" style="fill: #1f77b4; stroke: #1f77b4"/>
     <use xlink:href="#m48dad0d394" x="447.846014" y="322.464981" style="fill: #1f77b4; stroke: #1f77b4"/>
     <use xlink:href="#m48dad0d394" x="463.265128" y="327.096976" style="fill: #1f77b4; stroke: #1f77b4"/>
     <use xlink:href="#m48dad0d394" x="478.684242" y="329.991973" style="fill: #1f77b4; stroke: #1f77b4"/>
     <use xlink:href="#m48dad0d394" x="494.103357" y="332.88697" style="fill: #1f77b4; stroke: #1f77b4"/>
     <use xlink:href="#m48dad0d394" x="509.522471" y="335.781967" style="fill: #1f77b4; stroke: #1f77b4"/>
     <use xlink:href="#m48dad0d394" x="524.941585" y="345.624956" style="fill: #1f77b4; stroke: #1f77b4"/>
     <use xlink:href="#m48dad0d394" x="540.360699" y="349.098953" style="fill: #1f77b4; stroke: #1f77b4"/>
     <use xlink:href="#m48dad0d394" x="555.779814" y="351.41495" style="fill: #1f77b4; stroke: #1f77b4"/>
     <use xlink:href="#m48dad0d394" x="571.198928" y="353.730948" style="fill: #1f77b4; stroke: #1f77b4"/>
     <use xlink:href="#m48dad0d394" x="586.618042" y="356.046946" style="fill: #1f77b4; stroke: #1f77b4"/>
     <use xlink:href="#m48dad0d394" x="602.037156" y="358.362943" style="fill: #1f77b4; stroke: #1f77b4"/>
     <use xlink:href="#m48dad0d394" x="617.45627" y="360.678941" style="fill: #1f77b4; stroke: #1f77b4"/>
     <use xlink:href="#m48dad0d394" x="632.875385" y="362.415939" style="fill: #1f77b4; stroke: #1f77b4"/>
     <use xlink:href="#m48dad0d394" x="648.294499" y="364.731936" style="fill: #1f77b4; stroke: #1f77b4"/>
     <use xlink:href="#m48dad0d394" x="663.713613" y="366.468935" style="fill: #1f77b4; stroke: #1f77b4"/>
     <use xlink:href="#m48dad0d394" x="679.132727" y="368.784932" style="fill: #1f77b4; stroke: #1f77b4"/>
    </g>
   </g>
   <g id="line2d_32">
    <path d="M 77.787273 332.88697 
L 93.206387 340.992961 
L 108.625501 347.940954 
L 124.044615 353.730948 
L 139.46373 358.941943 
L 154.882844 363.573938 
L 170.301958 367.626933 
L 185.721072 371.10093 
L 201.140186 372.837928 
L 216.559301 373.416927 
L 231.978415 373.301128 
L 247.397529 373.532727 
L 262.816643 373.359027 
L 278.235758 373.243228 
L 293.654872 373.474827 
L 309.073986 373.301128 
L 324.4931 373.532727 
L 339.912214 373.359027 
L 355.331329 373.243228 
L 370.750443 373.474827 
L 386.169557 373.301128 
L 401.588671 373.532727 
L 417.007786 373.359027 
L 432.4269 373.243228 
L 447.846014 373.474827 
L 463.265128 373.301128 
L 478.684242 373.532727 
L 494.103357 373.359027 
L 509.522471 373.243228 
L 524.941585 373.474827 
L 540.360699 373.301128 
L 555.779814 373.532727 
L 571.198928 373.359027 
L 586.618042 373.243228 
L 602.037156 373.474827 
L 617.45627 373.301128 
L 632.875385 373.532727 
L 648.294499 373.359027 
L 663.713613 373.243228 
L 679.132727 373.474827 
" clip-path="url(#pbd85835ad8)" style="fill: none; stroke: #ff7f0e; stroke-width: 1.5; stroke-linecap: square"/>
    <defs>
     <path id="m1e8f937b97" d="M 0 3 
C 0.795609 3 1.55874 2.683901 2.12132 2.12132 
C 2.683901 1.55874 3 0.795609 3 0 
C 3 -0.795609 2.683901 -1.55874 2.12132 -2.12132 
C 1.55874 -2.683901 0.795609 -3 0 -3 
C -0.795609 -3 -1.55874 -2.683901 -2.12132 -2.12132 
C -2.683901 -1.55874 -3 -0.795609 -3 0 
C -3 0.795609 -2.683901 1.55874 -2.12132 2.12132 
C -1.55874 2.683901 -0.795609 3 0 3 
z
" style="stroke: #ff7f0e"/>
    </defs>
    <g clip-path="url(#pbd85835ad8)">
     <use xlink:href="#m1e8f937b97" x="77.787273" y="332.88697" style="fill: #ff7f0e; stroke: #ff7f0e"/>
     <use xlink:href="#m1e8f937b97" x="93.206387" y="340.992961" style="fill: #ff7f0e; stroke: #ff7f0e"/>
     <use xlink:href="#m1e8f937b97" x="108.625501" y="347.940954" style="fill: #ff7f0e; stroke: #ff7f0e"/>
     <use xlink:href="#m1e8f937b97" x="124.044615" y="353.730948" style="fill: #ff7f0e; stroke: #ff7f0e"/>
     <use xlink:href="#m1e8f937b97" x="139.46373" y="358.941943" style="fill: #ff7f0e; stroke: #ff7f0e"/>
     <use xlink:href="#m1e8f937b97" x="154.882844" y="363.573938" style="fill: #ff7f0e; stroke: #ff7f0e"/>
     <use xlink:href="#m1e8f937b97" x="170.301958" y="367.626933" style="fill: #ff7f0e; stroke: #ff7f0e"/>
     <use xlink:href="#m1e8f937b97" x="185.721072" y="371.10093" style="fill: #ff7f0e; stroke: #ff7f0e"/>
     <use xlink:href="#m1e8f937b97" x="201.140186" y="372.837928" style="fill: #ff7f0e; stroke: #ff7f0e"/>
     <use xlink:href="#m1e8f937b97" x="216.559301" y="373.416927" style="fill: #ff7f0e; stroke: #ff7f0e"/>
     <use xlink:href="#m1e8f937b97" x="231.978415" y="373.301128" style="fill: #ff7f0e; stroke: #ff7f0e"/>
     <use xlink:href="#m1e8f937b97" x="247.397529" y="373.532727" style="fill: #ff7f0e; stroke: #ff7f0e"/>
     <use xlink:href="#m1e8f937b97" x="262.816643" y="373.359027" style="fill: #ff7f0e; stroke: #ff7f0e"/>
     <use xlink:href="#m1e8f937b97" x="278.235758" y="373.243228" style="fill: #ff7f0e; stroke: #ff7f0e"/>
     <use xlink:href="#m1e8f937b97" x="293.654872" y="373.474827" style="fill: #ff7f0e; stroke: #ff7f0e"/>
     <use xlink:href="#m1e8f937b97" x="309.073986" y="373.301128" style="fill: #ff7f0e; stroke: #ff7f0e"/>
     <use xlink:href="#m1e8f937b97" x="324.4931" y="373.532727" style="fill: #ff7f0e; stroke: #ff7f0e"/>
     <use xlink:href="#m1e8f937b97" x="339.912214" y="373.359027" style="fill: #ff7f0e; stroke: #ff7f0e"/>
     <use xlink:href="#m1e8f937b97" x="355.331329" y="373.243228" style="fill: #ff7f0e; stroke: #ff7f0e"/>
     <use xlink:href="#m1e8f937b97" x="370.750443" y="373.474827" style="fill: #ff7f0e; stroke: #ff7f0e"/>
     <use xlink:href="#m1e8f937b97" x="386.169557" y="373.301128" style="fill: #ff7f0e; stroke: #ff7f0e"/>
     <use xlink:href="#m1e8f937b97" x="401.588671" y="373.532727" style="fill: #ff7f0e; stroke: #ff7f0e"/>
     <use xlink:href="#m1e8f937b97" x="417.007786" y="373.359027" style="fill: #ff7f0e; stroke: #ff7f0e"/>
     <use xlink:href="#m1e8f937b97" x="432.4269" y="373.243228" style="fill: #ff7f0e; stroke: #ff7f0e"/>
     <use xlink:href="#m1e8f937b97" x="447.846014" y="373.474827" style="fill: #ff7f0e; stroke: #ff7f0e"/>
     <use xlink:href="#m1e8f937b97" x="463.265128" y="373.301128" style="fill: #ff7f0e; stroke: #ff7f0e"/>
     <use xlink:href="#m1e8f937b97" x="478.684242" y="373.532727" style="fill: #ff7f0e; stroke: #ff7f0e"/>
     <use xlink:href="#m1e8f937b97" x="494.103357" y="373.359027" style="fill: #ff7f0e; stroke: #ff7f0e"/>
     <use xlink:href="#m1e8f937b97" x="509.522471" y="373.243228" style="fill: #ff7f0e; stroke: #ff7f0e"/>
     <use xlink:href="#m1e8f937b97" x="524.941585" y="373.474827" style="fill: #ff7f0e; stroke: #ff7f0e"/>
     <use xlink:href="#m1e8f937b97" x="540.360699" y="373.301128" style="fill: #ff7f0e; stroke: #ff7f0e"/>
     <use xlink:href="#m1e8f937b97" x="555.779814" y="373.532727" style="fill: #ff7f0e; stroke: #ff7f0e"/>
     <use xlink:href="#m1e8f937b97" x="571.198928" y="373.359027" style="fill: #ff7f0e; stroke: #ff7f0e"/>
     <use xlink:href="#m1e8f937b97" x="586.618042" y="373.243228" style="fill: #ff7f0e; stroke: #ff7f0e"/>
     <use xlink:href="#m1e8f937b97" x="602.037156" y="373.474827" style="fill: #ff7f0e; stroke: #ff7f0e"/>
     <use xlink:href="#m1e8f937b97" x="617.45627" y="373.301128" style="fill: #ff7f0e; stroke: #ff7f0e"/>
     <use xlink:href="#m1e8f937b97" x="632.875385" y="373.532727" style="fill: #ff7f0e; stroke: #ff7f0e"/>
     <use xlink:href="#m1e8f937b97" x="648.294499" y="373.359027" style="fill: #ff7f0e; stroke: #ff7f0e"/>
     <use xlink:href="#m1e8f937b97" x="663.713613" y="373.243228" style="fill: #ff7f0e; stroke: #ff7f0e"/>
     <use xlink:href="#m1e8f937b97" x="679.132727" y="373.474827" style="fill: #ff7f0e; stroke: #ff7f0e"/>
    </g>
   </g>
   <g id="line2d_33">
    <path d="M 77.787273 315.516988 
L 93.206387 322.059681 
L 108.625501 328.081275 
L 124.044615 333.639669 
L 139.46373 338.734864 
L 154.882844 343.424759 
L 170.301958 347.709354 
L 185.721072 351.64655 
L 201.140186 355.294246 
L 216.559301 358.652443 
L 231.978415 361.72114 
L 247.397529 364.500337 
L 262.816643 367.105834 
L 278.235758 369.479732 
L 293.654872 371.679929 
L 309.073986 371.679929 
L 324.4931 371.10093 
L 339.912214 370.69563 
L 355.331329 370.52193 
L 370.750443 370.69563 
L 386.169557 371.10093 
L 401.588671 371.679929 
L 417.007786 372.258929 
L 432.4269 372.664228 
L 447.846014 372.837928 
L 463.265128 372.664228 
L 478.684242 372.258929 
L 494.103357 371.679929 
L 509.522471 371.10093 
L 524.941585 370.69563 
L 540.360699 370.52193 
L 555.779814 370.69563 
L 571.198928 371.10093 
L 586.618042 371.679929 
L 602.037156 372.258929 
L 617.45627 372.664228 
L 632.875385 372.837928 
L 648.294499 372.664228 
L 663.713613 372.258929 
L 679.132727 371.679929 
" clip-path="url(#pbd85835ad8)" style="fill: none; stroke: #2ca02c; stroke-width: 1.5; stroke-linecap: square"/>
    <defs>
     <path id="m5bc44ea442" d="M 0 3 
C 0.795609 3 1.55874 2.683901 2.12132 2.12132 
C 2.683901 1.55874 3 0.795609 3 0 
C 3 -0.795609 2.683901 -1.55874 2.12132 -2.12132 
C 1.55874 -2.683901 0.795609 -3 0 -3 
C -0.795609 -3 -1.55874 -2.683901 -2.12132 -2.12132 
C -2.683901 -1.55874 -3 -0.795609 -3 0 
C -3 0.795609 -2.683901 1.55874 -2.12132 2.12132 
C -1.55874 2.683901 -0.795609 3 0 3 
z
" style="stroke: #2ca02c"/>
    </defs>
    <g clip-path="url(#pbd85835ad8)">
     <use xlink:href="#m5bc44ea442" x="77.787273" y="315.516988" style="fill: #2ca02c; stroke: #2ca02c"/>
     <use xlink:href="#m5bc44ea442" x="93.206387" y="322.059681" style="fill: #2ca02c; stroke: #2ca02c"/>
     <use xlink:href="#m5bc44ea442" x="108.625501" y="328.081275" style="fill: #2ca02c; stroke: #2ca02c"/>
     <use xlink:href="#m5bc44ea442" x="124.044615" y="333.639669" style="fill: #2ca02c; stroke: #2ca02c"/>
     <use xlink:href="#m5bc44ea442" x="139.46373" y="338.734864" style="fill: #2ca02c; stroke: #2ca02c"/>
     <use xlink:href="#m5bc44ea442" x="154.882844" y="343.424759" style="fill: #2ca02c; stroke: #2ca02c"/>
     <use xlink:href="#m5bc44ea442" x="170.301958" y="347.709354" style="fill: #2ca02c; stroke: #2ca02c"/>
     <use xlink:href="#m5bc44ea442" x="185.721072" y="351.64655" style="fill: #2ca02c; stroke: #2ca02c"/>
     <use xlink:href="#m5bc44ea442" x="201.140186" y="355.294246" style="fill: #2ca02c; stroke: #2ca02c"/>
     <use xlink:href="#m5bc44ea442" x="216.559301" y="358.652443" style="fill: #2ca02c; stroke: #2ca02c"/>
     <use xlink:href="#m5bc44ea442" x="231.978415" y="361.72114" style="fill: #2ca02c; stroke: #2ca02c"/>
     <use xlink:href="#m5bc44ea442" x="247.397529" y="364.500337" style="fill: #2ca02c; stroke: #2ca02c"/>
     <use xlink:href="#m5bc44ea442" x="262.816643" y="367.105834" style="fill: #2ca02c; stroke: #2ca02c"/>
     <use xlink:href="#m5bc44ea442" x="278.235758" y="369.479732" style="fill: #2ca02c; stroke: #2ca02c"/>
     <use xlink:href="#m5bc44ea442" x="293.654872" y="371.679929" style="fill: #2ca02c; stroke: #2ca02c"/>
     <use xlink:href="#m5bc44ea442" x="309.073986" y="371.679929" style="fill: #2ca02c; stroke: #2ca02c"/>
     <use xlink:href="#m5bc44ea442" x="324.4931" y="371.10093" style="fill: #2ca02c; stroke: #2ca02c"/>
     <use xlink:href="#m5bc44ea442" x="339.912214" y="370.69563" style="fill: #2ca02c; stroke: #2ca02c"/>
     <use xlink:href="#m5bc44ea442" x="355.331329" y="370.52193" style="fill: #2ca02c; stroke: #2ca02c"/>
     <use xlink:href="#m5bc44ea442" x="370.750443" y="370.69563" style="fill: #2ca02c; stroke: #2ca02c"/>
     <use xlink:href="#m5bc44ea442" x="386.169557" y="371.10093" style="fill: #2ca02c; stroke: #2ca02c"/>
     <use xlink:href="#m5bc44ea442" x="401.588671" y="371.679929" style="fill: #2ca02c; stroke: #2ca02c"/>
     <use xlink:href="#m5bc44ea442" x="417.007786" y="372.258929" style="fill: #2ca02c; stroke: #2ca02c"/>
     <use xlink:href="#m5bc44ea442" x="432.4269" y="372.664228" style="fill: #2ca02c; stroke: #2ca02c"/>
     <use xlink:href="#m5bc44ea442" x="447.846014" y="372.837928" style="fill: #2ca02c; stroke: #2ca02c"/>
     <use xlink:href="#m5bc44ea442" x="463.265128" y="372.664228" style="fill: #2ca02c; stroke: #2ca02c"/>
     <use xlink:href="#m5bc44ea442" x="478.684242" y="372.258929" style="fill: #2ca02c; stroke: #2ca02c"/>
     <use xlink:href="#m5bc44ea442" x="494.103357" y="371.679929" style="fill: #2ca02c; stroke: #2ca02c"/>
     <use xlink:href="#m5bc44ea442" x="509.522471" y="371.10093" style="fill: #2ca02c; stroke: #2ca02c"/>
     <use xlink:href="#m5bc44ea442" x="524.941585" y="370.69563" style="fill: #2ca02c; stroke: #2ca02c"/>
     <use xlink:href="#m5bc44ea442" x="540.360699" y="370.52193" style="fill: #2ca02c; stroke: #2ca02c"/>
     <use xlink:href="#m5bc44ea442" x="555.779814" y="370.69563" style="fill: #2ca02c; stroke: #2ca02c"/>
     <use xlink:href="#m5bc44ea442" x="571.198928" y="371.10093" style="fill: #2ca02c; stroke: #2ca02c"/>
     <use xlink:href="#m5bc44ea442" x="586.618042" y="371.679929" style="fill: #2ca02c; stroke: #2ca02c"/>
     <use xlink:href="#m5bc44ea442" x="602.037156" y="372.258929" style="fill: #2ca02c; stroke: #2ca02c"/>
     <use xlink:href="#m5bc44ea442" x="617.45627" y="372.664228" style="fill: #2ca02c; stroke: #2ca02c"/>
     <use xlink:href="#m5bc44ea442" x="632.875385" y="372.837928" style="fill: #2ca02c; stroke: #2ca02c"/>
     <use xlink:href="#m5bc44ea442" x="648.294499" y="372.664228" style="fill: #2ca02c; stroke: #2ca02c"/>
     <use xlink:href="#m5bc44ea442" x="663.713613" y="372.258929" style="fill: #2ca02c; stroke: #2ca02c"/>
     <use xlink:href="#m5bc44ea442" x="679.132727" y="371.679929" style="fill: #2ca02c; stroke: #2ca02c"/>
    </g>
   </g>
   <g id="line2d_34">
    <path d="M 77.787273 309.726994 
L 93.206387 315.459088 
L 108.625501 320.785882 
L 124.044615 325.823177 
L 139.46373 330.455172 
L 154.882844 334.855568 
L 170.301958 338.908564 
L 185.721072 342.72996 
L 201.140186 346.261856 
L 216.559301 349.620052 
L 231.978415 352.688749 
L 247.397529 355.583746 
L 262.816643 358.305043 
L 278.235758 360.794741 
L 293.654872 363.168638 
L 309.073986 365.368836 
L 324.4931 367.453234 
L 339.912214 369.363932 
L 355.331329 371.15883 
L 370.750443 372.837928 
L 386.169557 371.679929 
L 401.588671 370.98513 
L 417.007786 370.57983 
L 432.4269 370.63773 
L 447.846014 371.10093 
L 463.265128 371.853629 
L 478.684242 372.548428 
L 494.103357 372.837928 
L 509.522471 372.664228 
L 524.941585 372.027329 
L 540.360699 371.33253 
L 555.779814 370.69563 
L 571.198928 370.52193 
L 586.618042 370.81143 
L 602.037156 371.506229 
L 617.45627 372.258929 
L 632.875385 372.722128 
L 648.294499 372.780028 
L 663.713613 372.374728 
L 679.132727 371.679929 
" clip-path="url(#pbd85835ad8)" style="fill: none; stroke: #d62728; stroke-width: 1.5; stroke-linecap: square"/>
    <defs>
     <path id="m7b647a9d0e" d="M 0 3 
C 0.795609 3 1.55874 2.683901 2.12132 2.12132 
C 2.683901 1.55874 3 0.795609 3 0 
C 3 -0.795609 2.683901 -1.55874 2.12132 -2.12132 
C 1.55874 -2.683901 0.795609 -3 0 -3 
C -0.795609 -3 -1.55874 -2.683901 -2.12132 -2.12132 
C -2.683901 -1.55874 -3 -0.795609 -3 0 
C -3 0.795609 -2.683901 1.55874 -2.12132 2.12132 
C -1.55874 2.683901 -0.795609 3 0 3 
z
" style="stroke: #d62728"/>
    </defs>
    <g clip-path="url(#pbd85835ad8)">
     <use xlink:href="#m7b647a9d0e" x="77.787273" y="309.726994" style="fill: #d62728; stroke: #d62728"/>
     <use xlink:href="#m7b647a9d0e" x="93.206387" y="315.459088" style="fill: #d62728; stroke: #d62728"/>
     <use xlink:href="#m7b647a9d0e" x="108.625501" y="320.785882" style="fill: #d62728; stroke: #d62728"/>
     <use xlink:href="#m7b647a9d0e" x="124.044615" y="325.823177" style="fill: #d62728; stroke: #d62728"/>
     <use xlink:href="#m7b647a9d0e" x="139.46373" y="330.455172" style="fill: #d62728; stroke: #d62728"/>
     <use xlink:href="#m7b647a9d0e" x="154.882844" y="334.855568" style="fill: #d62728; stroke: #d62728"/>
     <use xlink:href="#m7b647a9d0e" x="170.301958" y="338.908564" style="fill: #d62728; stroke: #d62728"/>
     <use xlink:href="#m7b647a9d0e" x="185.721072" y="342.72996" style="fill: #d62728; stroke: #d62728"/>
     <use xlink:href="#m7b647a9d0e" x="201.140186" y="346.261856" style="fill: #d62728; stroke: #d62728"/>
     <use xlink:href="#m7b647a9d0e" x="216.559301" y="349.620052" style="fill: #d62728; stroke: #d62728"/>
     <use xlink:href="#m7b647a9d0e" x="231.978415" y="352.688749" style="fill: #d62728; stroke: #d62728"/>
     <use xlink:href="#m7b647a9d0e" x="247.397529" y="355.583746" style="fill: #d62728; stroke: #d62728"/>
     <use xlink:href="#m7b647a9d0e" x="262.816643" y="358.305043" style="fill: #d62728; stroke: #d62728"/>
     <use xlink:href="#m7b647a9d0e" x="278.235758" y="360.794741" style="fill: #d62728; stroke: #d62728"/>
     <use xlink:href="#m7b647a9d0e" x="293.654872" y="363.168638" style="fill: #d62728; stroke: #d62728"/>
     <use xlink:href="#m7b647a9d0e" x="309.073986" y="365.368836" style="fill: #d62728; stroke: #d62728"/>
     <use xlink:href="#m7b647a9d0e" x="324.4931" y="367.453234" style="fill: #d62728; stroke: #d62728"/>
     <use xlink:href="#m7b647a9d0e" x="339.912214" y="369.363932" style="fill: #d62728; stroke: #d62728"/>
     <use xlink:href="#m7b647a9d0e" x="355.331329" y="371.15883" style="fill: #d62728; stroke: #d62728"/>
     <use xlink:href="#m7b647a9d0e" x="370.750443" y="372.837928" style="fill: #d62728; stroke: #d62728"/>
     <use xlink:href="#m7b647a9d0e" x="386.169557" y="371.679929" style="fill: #d62728; stroke: #d62728"/>
     <use xlink:href="#m7b647a9d0e" x="401.588671" y="370.98513" style="fill: #d62728; stroke: #d62728"/>
     <use xlink:href="#m7b647a9d0e" x="417.007786" y="370.57983" style="fill: #d62728; stroke: #d62728"/>
     <use xlink:href="#m7b647a9d0e" x="432.4269" y="370.63773" style="fill: #d62728; stroke: #d62728"/>
     <use xlink:href="#m7b647a9d0e" x="447.846014" y="371.10093" style="fill: #d62728; stroke: #d62728"/>
     <use xlink:href="#m7b647a9d0e" x="463.265128" y="371.853629" style="fill: #d62728; stroke: #d62728"/>
     <use xlink:href="#m7b647a9d0e" x="478.684242" y="372.548428" style="fill: #d62728; stroke: #d62728"/>
     <use xlink:href="#m7b647a9d0e" x="494.103357" y="372.837928" style="fill: #d62728; stroke: #d62728"/>
     <use xlink:href="#m7b647a9d0e" x="509.522471" y="372.664228" style="fill: #d62728; stroke: #d62728"/>
     <use xlink:href="#m7b647a9d0e" x="524.941585" y="372.027329" style="fill: #d62728; stroke: #d62728"/>
     <use xlink:href="#m7b647a9d0e" x="540.360699" y="371.33253" style="fill: #d62728; stroke: #d62728"/>
     <use xlink:href="#m7b647a9d0e" x="555.779814" y="370.69563" style="fill: #d62728; stroke: #d62728"/>
     <use xlink:href="#m7b647a9d0e" x="571.198928" y="370.52193" style="fill: #d62728; stroke: #d62728"/>
     <use xlink:href="#m7b647a9d0e" x="586.618042" y="370.81143" style="fill: #d62728; stroke: #d62728"/>
     <use xlink:href="#m7b647a9d0e" x="602.037156" y="371.506229" style="fill: #d62728; stroke: #d62728"/>
     <use xlink:href="#m7b647a9d0e" x="617.45627" y="372.258929" style="fill: #d62728; stroke: #d62728"/>
     <use xlink:href="#m7b647a9d0e" x="632.875385" y="372.722128" style="fill: #d62728; stroke: #d62728"/>
     <use xlink:href="#m7b647a9d0e" x="648.294499" y="372.780028" style="fill: #d62728; stroke: #d62728"/>
     <use xlink:href="#m7b647a9d0e" x="663.713613" y="372.374728" style="fill: #d62728; stroke: #d62728"/>
     <use xlink:href="#m7b647a9d0e" x="679.132727" y="371.679929" style="fill: #d62728; stroke: #d62728"/>
    </g>
   </g>
   <g id="line2d_35">
    <path d="M 77.787273 286.567018 
L 93.206387 292.357012 
L 108.625501 315.516988 
L 124.044615 318.411985 
L 139.46373 314.358989 
L 154.882844 316.674987 
L 170.301958 312.621991 
L 185.721072 316.095987 
L 201.140186 314.937989 
L 216.559301 317.253986 
L 231.978415 315.516988 
L 247.397529 317.832986 
L 262.816643 316.095987 
L 278.235758 318.990984 
L 293.654872 313.77999 
L 309.073986 318.411985 
L 324.4931 316.674987 
L 339.912214 320.148983 
L 355.331329 317.253986 
L 370.750443 320.727983 
L 386.169557 317.832986 
L 401.588671 321.306982 
L 417.007786 318.411985 
L 432.4269 315.516988 
L 447.846014 319.569984 
L 463.265128 320.727983 
L 478.684242 317.253986 
L 494.103357 321.306982 
L 509.522471 318.990984 
L 524.941585 317.832986 
L 540.360699 316.095987 
L 555.779814 320.148983 
L 571.198928 318.411985 
L 586.618042 310.884993 
L 602.037156 316.674987 
L 617.45627 320.727983 
L 632.875385 317.253986 
L 648.294499 319.569984 
L 663.713613 317.832986 
L 679.132727 320.148983 
" clip-path="url(#pbd85835ad8)" style="fill: none; stroke: #9467bd; stroke-width: 1.5; stroke-linecap: square"/>
    <defs>
     <path id="mf42b9b3d7d" d="M 0 3 
C 0.795609 3 1.55874 2.683901 2.12132 2.12132 
C 2.683901 1.55874 3 0.795609 3 0 
C 3 -0.795609 2.683901 -1.55874 2.12132 -2.12132 
C 1.55874 -2.683901 0.795609 -3 0 -3 
C -0.795609 -3 -1.55874 -2.683901 -2.12132 -2.12132 
C -2.683901 -1.55874 -3 -0.795609 -3 0 
C -3 0.795609 -2.683901 1.55874 -2.12132 2.12132 
C -1.55874 2.683901 -0.795609 3 0 3 
z
" style="stroke: #9467bd"/>
    </defs>
    <g clip-path="url(#pbd85835ad8)">
     <use xlink:href="#mf42b9b3d7d" x="77.787273" y="286.567018" style="fill: #9467bd; stroke: #9467bd"/>
     <use xlink:href="#mf42b9b3d7d" x="93.206387" y="292.357012" style="fill: #9467bd; stroke: #9467bd"/>
     <use xlink:href="#mf42b9b3d7d" x="108.625501" y="315.516988" style="fill: #9467bd; stroke: #9467bd"/>
     <use xlink:href="#mf42b9b3d7d" x="124.044615" y="318.411985" style="fill: #9467bd; stroke: #9467bd"/>
     <use xlink:href="#mf42b9b3d7d" x="139.46373" y="314.358989" style="fill: #9467bd; stroke: #9467bd"/>
     <use xlink:href="#mf42b9b3d7d" x="154.882844" y="316.674987" style="fill: #9467bd; stroke: #9467bd"/>
     <use xlink:href="#mf42b9b3d7d" x="170.301958" y="312.621991" style="fill: #9467bd; stroke: #9467bd"/>
     <use xlink:href="#mf42b9b3d7d" x="185.721072" y="316.095987" style="fill: #9467bd; stroke: #9467bd"/>
     <use xlink:href="#mf42b9b3d7d" x="201.140186" y="314.937989" style="fill: #9467bd; stroke: #9467bd"/>
     <use xlink:href="#mf42b9b3d7d" x="216.559301" y="317.253986" style="fill: #9467bd; stroke: #9467bd"/>
     <use xlink:href="#mf42b9b3d7d" x="231.978415" y="315.516988" style="fill: #9467bd; stroke: #9467bd"/>
     <use xlink:href="#mf42b9b3d7d" x="247.397529" y="317.832986" style="fill: #9467bd; stroke: #9467bd"/>
     <use xlink:href="#mf42b9b3d7d" x="262.816643" y="316.095987" style="fill: #9467bd; stroke: #9467bd"/>
     <use xlink:href="#mf42b9b3d7d" x="278.235758" y="318.990984" style="fill: #9467bd; stroke: #9467bd"/>
     <use xlink:href="#mf42b9b3d7d" x="293.654872" y="313.77999" style="fill: #9467bd; stroke: #9467bd"/>
     <use xlink:href="#mf42b9b3d7d" x="309.073986" y="318.411985" style="fill: #9467bd; stroke: #9467bd"/>
     <use xlink:href="#mf42b9b3d7d" x="324.4931" y="316.674987" style="fill: #9467bd; stroke: #9467bd"/>
     <use xlink:href="#mf42b9b3d7d" x="339.912214" y="320.148983" style="fill: #9467bd; stroke: #9467bd"/>
     <use xlink:href="#mf42b9b3d7d" x="355.331329" y="317.253986" style="fill: #9467bd; stroke: #9467bd"/>
     <use xlink:href="#mf42b9b3d7d" x="370.750443" y="320.727983" style="fill: #9467bd; stroke: #9467bd"/>
     <use xlink:href="#mf42b9b3d7d" x="386.169557" y="317.832986" style="fill: #9467bd; stroke: #9467bd"/>
     <use xlink:href="#mf42b9b3d7d" x="401.588671" y="321.306982" style="fill: #9467bd; stroke: #9467bd"/>
     <use xlink:href="#mf42b9b3d7d" x="417.007786" y="318.411985" style="fill: #9467bd; stroke: #9467bd"/>
     <use xlink:href="#mf42b9b3d7d" x="432.4269" y="315.516988" style="fill: #9467bd; stroke: #9467bd"/>
     <use xlink:href="#mf42b9b3d7d" x="447.846014" y="319.569984" style="fill: #9467bd; stroke: #9467bd"/>
     <use xlink:href="#mf42b9b3d7d" x="463.265128" y="320.727983" style="fill: #9467bd; stroke: #9467bd"/>
     <use xlink:href="#mf42b9b3d7d" x="478.684242" y="317.253986" style="fill: #9467bd; stroke: #9467bd"/>
     <use xlink:href="#mf42b9b3d7d" x="494.103357" y="321.306982" style="fill: #9467bd; stroke: #9467bd"/>
     <use xlink:href="#mf42b9b3d7d" x="509.522471" y="318.990984" style="fill: #9467bd; stroke: #9467bd"/>
     <use xlink:href="#mf42b9b3d7d" x="524.941585" y="317.832986" style="fill: #9467bd; stroke: #9467bd"/>
     <use xlink:href="#mf42b9b3d7d" x="540.360699" y="316.095987" style="fill: #9467bd; stroke: #9467bd"/>
     <use xlink:href="#mf42b9b3d7d" x="555.779814" y="320.148983" style="fill: #9467bd; stroke: #9467bd"/>
     <use xlink:href="#mf42b9b3d7d" x="571.198928" y="318.411985" style="fill: #9467bd; stroke: #9467bd"/>
     <use xlink:href="#mf42b9b3d7d" x="586.618042" y="310.884993" style="fill: #9467bd; stroke: #9467bd"/>
     <use xlink:href="#mf42b9b3d7d" x="602.037156" y="316.674987" style="fill: #9467bd; stroke: #9467bd"/>
     <use xlink:href="#mf42b9b3d7d" x="617.45627" y="320.727983" style="fill: #9467bd; stroke: #9467bd"/>
     <use xlink:href="#mf42b9b3d7d" x="632.875385" y="317.253986" style="fill: #9467bd; stroke: #9467bd"/>
     <use xlink:href="#mf42b9b3d7d" x="648.294499" y="319.569984" style="fill: #9467bd; stroke: #9467bd"/>
     <use xlink:href="#mf42b9b3d7d" x="663.713613" y="317.832986" style="fill: #9467bd; stroke: #9467bd"/>
     <use xlink:href="#mf42b9b3d7d" x="679.132727" y="320.148983" style="fill: #9467bd; stroke: #9467bd"/>
    </g>
   </g>
   <g id="patch_3">
    <path d="M 47.72 390.04 
L 47.72 26.88 
" style="fill: none; stroke: #000000; stroke-width: 0.8; stroke-linejoin: miter; stroke-linecap: square"/>
   </g>
   <g id="patch_4">
    <path d="M 709.2 390.04 
L 709.2 26.88 
" style="fill: none; stroke: #000000; stroke-width: 0.8; stroke-linejoin: miter; stroke-linecap: square"/>
   </g>
   <g id="patch_5">
    <path d="M 47.72 390.04 
L 709.2 390.04 
" style="fill: none; stroke: #000000; stroke-width: 0.8; stroke-linejoin: miter; stroke-linecap: square"/>
   </g>
   <g id="patch_6">
    <path d="M 47.72 26.88 
L 709.2 26.88 
" style="fill: none; stroke: #000000; stroke-width: 0.8; stroke-linejoin: miter; stroke-linecap: square"/>
   </g>
   <g id="text_18">
    <!-- Reconstruction Error across Different Learning Rates and Epochs -->
    <g transform="translate(184.25875 20.88) scale(0.12 -0.12)">
     <defs>
      <path id="DejaVuSans-61" d="M 2194 1759 
Q 1497 1759 1228 1600 
Q 959 1441 959 1056 
Q 959 750 1161 570 
Q 1363 391 1709 391 
Q 2188 391 2477 730 
Q 2766 1069 2766 1631 
L 2766 1759 
L 2194 1759 
z
M 3341 1997 
L 3341 0 
L 2766 0 
L 2766 531 
Q 2569 213 2275 61 
Q 1981 -91 1556 -91 
Q 1019 -91 701 211 
Q 384 513 384 1019 
Q 384 1609 779 1909 
Q 1175 2209 1959 2209 
L 2766 2209 
L 2766 2266 
Q 2766 2663 2505 2880 
Q 2244 3097 1772 3097 
Q 1472 3097 1187 3025 
Q 903 2953 641 2809 
L 641 3341 
Q 956 3463 1253 3523 
Q 1550 3584 1831 3584 
Q 2591 3584 2966 3190 
Q 3341 2797 3341 1997 
z
" transform="scale(0.015625)"/>
      <path id="DejaVuSans-44" d="M 1259 4147 
L 1259 519 
L 2022 519 
Q 2988 519 3436 956 
Q 3884 1394 3884 2338 
Q 3884 3275 3436 3711 
Q 2988 4147 2022 4147 
L 1259 4147 
z
M 628 4666 
L 1925 4666 
Q 3281 4666 3915 4102 
Q 4550 3538 4550 2338 
Q 4550 1131 3912 565 
Q 3275 0 1925 0 
L 628 0 
L 628 4666 
z
" transform="scale(0.015625)"/>
      <path id="DejaVuSans-66" d="M 2375 4863 
L 2375 4384 
L 1825 4384 
Q 1516 4384 1395 4259 
Q 1275 4134 1275 3809 
L 1275 3500 
L 2222 3500 
L 2222 3053 
L 1275 3053 
L 1275 0 
L 697 0 
L 697 3053 
L 147 3053 
L 147 3500 
L 697 3500 
L 697 3744 
Q 697 4328 969 4595 
Q 1241 4863 1831 4863 
L 2375 4863 
z
" transform="scale(0.015625)"/>
      <path id="DejaVuSans-4c" d="M 628 4666 
L 1259 4666 
L 1259 531 
L 3531 531 
L 3531 0 
L 628 0 
L 628 4666 
z
" transform="scale(0.015625)"/>
      <path id="DejaVuSans-67" d="M 2906 1791 
Q 2906 2416 2648 2759 
Q 2391 3103 1925 3103 
Q 1463 3103 1205 2759 
Q 947 2416 947 1791 
Q 947 1169 1205 825 
Q 1463 481 1925 481 
Q 2391 481 2648 825 
Q 2906 1169 2906 1791 
z
M 3481 434 
Q 3481 -459 3084 -895 
Q 2688 -1331 1869 -1331 
Q 1566 -1331 1297 -1286 
Q 1028 -1241 775 -1147 
L 775 -588 
Q 1028 -725 1275 -790 
Q 1522 -856 1778 -856 
Q 2344 -856 2625 -561 
Q 2906 -266 2906 331 
L 2906 616 
Q 2728 306 2450 153 
Q 2172 0 1784 0 
Q 1141 0 747 490 
Q 353 981 353 1791 
Q 353 2603 747 3093 
Q 1141 3584 1784 3584 
Q 2172 3584 2450 3431 
Q 2728 3278 2906 2969 
L 2906 3500 
L 3481 3500 
L 3481 434 
z
" transform="scale(0.015625)"/>
      <path id="DejaVuSans-64" d="M 2906 2969 
L 2906 4863 
L 3481 4863 
L 3481 0 
L 2906 0 
L 2906 525 
Q 2725 213 2448 61 
Q 2172 -91 1784 -91 
Q 1150 -91 751 415 
Q 353 922 353 1747 
Q 353 2572 751 3078 
Q 1150 3584 1784 3584 
Q 2172 3584 2448 3432 
Q 2725 3281 2906 2969 
z
M 947 1747 
Q 947 1113 1208 752 
Q 1469 391 1925 391 
Q 2381 391 2643 752 
Q 2906 1113 2906 1747 
Q 2906 2381 2643 2742 
Q 2381 3103 1925 3103 
Q 1469 3103 1208 2742 
Q 947 2381 947 1747 
z
" transform="scale(0.015625)"/>
     </defs>
     <use xlink:href="#DejaVuSans-52"/>
     <use xlink:href="#DejaVuSans-65" x="64.982422"/>
     <use xlink:href="#DejaVuSans-63" x="126.505859"/>
     <use xlink:href="#DejaVuSans-6f" x="181.486328"/>
     <use xlink:href="#DejaVuSans-6e" x="242.667969"/>
     <use xlink:href="#DejaVuSans-73" x="306.046875"/>
     <use xlink:href="#DejaVuSans-74" x="358.146484"/>
     <use xlink:href="#DejaVuSans-72" x="397.355469"/>
     <use xlink:href="#DejaVuSans-75" x="438.46875"/>
     <use xlink:href="#DejaVuSans-63" x="501.847656"/>
     <use xlink:href="#DejaVuSans-74" x="556.828125"/>
     <use xlink:href="#DejaVuSans-69" x="596.037109"/>
     <use xlink:href="#DejaVuSans-6f" x="623.820312"/>
     <use xlink:href="#DejaVuSans-6e" x="685.001953"/>
     <use xlink:href="#DejaVuSans-20" x="748.380859"/>
     <use xlink:href="#DejaVuSans-45" x="780.167969"/>
     <use xlink:href="#DejaVuSans-72" x="843.351562"/>
     <use xlink:href="#DejaVuSans-72" x="882.714844"/>
     <use xlink:href="#DejaVuSans-6f" x="921.578125"/>
     <use xlink:href="#DejaVuSans-72" x="982.759766"/>
     <use xlink:href="#DejaVuSans-20" x="1023.873047"/>
     <use xlink:href="#DejaVuSans-61" x="1055.660156"/>
     <use xlink:href="#DejaVuSans-63" x="1116.939453"/>
     <use xlink:href="#DejaVuSans-72" x="1171.919922"/>
     <use xlink:href="#DejaVuSans-6f" x="1210.783203"/>
     <use xlink:href="#DejaVuSans-73" x="1271.964844"/>
     <use xlink:href="#DejaVuSans-73" x="1324.064453"/>
     <use xlink:href="#DejaVuSans-20" x="1376.164062"/>
     <use xlink:href="#DejaVuSans-44" x="1407.951172"/>
     <use xlink:href="#DejaVuSans-69" x="1484.953125"/>
     <use xlink:href="#DejaVuSans-66" x="1512.736328"/>
     <use xlink:href="#DejaVuSans-66" x="1547.941406"/>
     <use xlink:href="#DejaVuSans-65" x="1583.146484"/>
     <use xlink:href="#DejaVuSans-72" x="1644.669922"/>
     <use xlink:href="#DejaVuSans-65" x="1683.533203"/>
     <use xlink:href="#DejaVuSans-6e" x="1745.056641"/>
     <use xlink:href="#DejaVuSans-74" x="1808.435547"/>
     <use xlink:href="#DejaVuSans-20" x="1847.644531"/>
     <use xlink:href="#DejaVuSans-4c" x="1879.431641"/>
     <use xlink:href="#DejaVuSans-65" x="1933.394531"/>
     <use xlink:href="#DejaVuSans-61" x="1994.917969"/>
     <use xlink:href="#DejaVuSans-72" x="2056.197266"/>
     <use xlink:href="#DejaVuSans-6e" x="2095.560547"/>
     <use xlink:href="#DejaVuSans-69" x="2158.939453"/>
     <use xlink:href="#DejaVuSans-6e" x="2186.722656"/>
     <use xlink:href="#DejaVuSans-67" x="2250.101562"/>
     <use xlink:href="#DejaVuSans-20" x="2313.578125"/>
     <use xlink:href="#DejaVuSans-52" x="2345.365234"/>
     <use xlink:href="#DejaVuSans-61" x="2412.597656"/>
     <use xlink:href="#DejaVuSans-74" x="2473.876953"/>
     <use xlink:href="#DejaVuSans-65" x="2513.085938"/>
     <use xlink:href="#DejaVuSans-73" x="2574.609375"/>
     <use xlink:href="#DejaVuSans-20" x="2626.708984"/>
     <use xlink:href="#DejaVuSans-61" x="2658.496094"/>
     <use xlink:href="#DejaVuSans-6e" x="2719.775391"/>
     <use xlink:href="#DejaVuSans-64" x="2783.154297"/>
     <use xlink:href="#DejaVuSans-20" x="2846.630859"/>
     <use xlink:href="#DejaVuSans-45" x="2878.417969"/>
     <use xlink:href="#DejaVuSans-70" x="2941.601562"/>
     <use xlink:href="#DejaVuSans-6f" x="3005.078125"/>
     <use xlink:href="#DejaVuSans-63" x="3066.259766"/>
     <use xlink:href="#DejaVuSans-68" x="3121.240234"/>
     <use xlink:href="#DejaVuSans-73" x="3184.619141"/>
    </g>
   </g>
   <g id="legend_1">
    <g id="patch_7">
     <path d="M 614.309375 122.94875 
L 702.2 122.94875 
Q 704.2 122.94875 704.2 120.94875 
L 704.2 33.88 
Q 704.2 31.88 702.2 31.88 
L 614.309375 31.88 
Q 612.309375 31.88 612.309375 33.88 
L 612.309375 120.94875 
Q 612.309375 122.94875 614.309375 122.94875 
z
" style="fill: #ffffff; opacity: 0.8; stroke: #cccccc; stroke-linejoin: miter"/>
    </g>
    <g id="text_19">
     <!-- Learning Rate -->
     <g transform="translate(623.495313 43.478438) scale(0.1 -0.1)">
      <use xlink:href="#DejaVuSans-4c"/>
      <use xlink:href="#DejaVuSans-65" x="53.962891"/>
      <use xlink:href="#DejaVuSans-61" x="115.486328"/>
      <use xlink:href="#DejaVuSans-72" x="176.765625"/>
      <use xlink:href="#DejaVuSans-6e" x="216.128906"/>
      <use xlink:href="#DejaVuSans-69" x="279.507812"/>
      <use xlink:href="#DejaVuSans-6e" x="307.291016"/>
      <use xlink:href="#DejaVuSans-67" x="370.669922"/>
      <use xlink:href="#DejaVuSans-20" x="434.146484"/>
      <use xlink:href="#DejaVuSans-52" x="465.933594"/>
      <use xlink:href="#DejaVuSans-61" x="533.166016"/>
      <use xlink:href="#DejaVuSans-74" x="594.445312"/>
      <use xlink:href="#DejaVuSans-65" x="633.654297"/>
     </g>
    </g>
    <g id="line2d_36">
     <path d="M 616.309375 54.656563 
L 626.309375 54.656563 
L 636.309375 54.656563 
" style="fill: none; stroke: #1f77b4; stroke-width: 1.5; stroke-linecap: square"/>
     <g>
      <use xlink:href="#m48dad0d394" x="626.309375" y="54.656563" style="fill: #1f77b4; stroke: #1f77b4"/>
     </g>
    </g>
    <g id="text_20">
     <!-- LR=0.0005 -->
     <g transform="translate(644.309375 58.156563) scale(0.1 -0.1)">
      <defs>
       <path id="DejaVuSans-3d" d="M 678 2906 
L 4684 2906 
L 4684 2381 
L 678 2381 
L 678 2906 
z
M 678 1631 
L 4684 1631 
L 4684 1100 
L 678 1100 
L 678 1631 
z
" transform="scale(0.015625)"/>
      </defs>
      <use xlink:href="#DejaVuSans-4c"/>
      <use xlink:href="#DejaVuSans-52" x="55.712891"/>
      <use xlink:href="#DejaVuSans-3d" x="125.195312"/>
      <use xlink:href="#DejaVuSans-30" x="208.984375"/>
      <use xlink:href="#DejaVuSans-2e" x="272.607422"/>
      <use xlink:href="#DejaVuSans-30" x="304.394531"/>
      <use xlink:href="#DejaVuSans-30" x="368.017578"/>
      <use xlink:href="#DejaVuSans-30" x="431.640625"/>
      <use xlink:href="#DejaVuSans-35" x="495.263672"/>
     </g>
    </g>
    <g id="line2d_37">
     <path d="M 616.309375 69.334688 
L 626.309375 69.334688 
L 636.309375 69.334688 
" style="fill: none; stroke: #ff7f0e; stroke-width: 1.5; stroke-linecap: square"/>
     <g>
      <use xlink:href="#m1e8f937b97" x="626.309375" y="69.334688" style="fill: #ff7f0e; stroke: #ff7f0e"/>
     </g>
    </g>
    <g id="text_21">
     <!-- LR=0.001 -->
     <g transform="translate(644.309375 72.834688) scale(0.1 -0.1)">
      <use xlink:href="#DejaVuSans-4c"/>
      <use xlink:href="#DejaVuSans-52" x="55.712891"/>
      <use xlink:href="#DejaVuSans-3d" x="125.195312"/>
      <use xlink:href="#DejaVuSans-30" x="208.984375"/>
      <use xlink:href="#DejaVuSans-2e" x="272.607422"/>
      <use xlink:href="#DejaVuSans-30" x="304.394531"/>
      <use xlink:href="#DejaVuSans-30" x="368.017578"/>
      <use xlink:href="#DejaVuSans-31" x="431.640625"/>
     </g>
    </g>
    <g id="line2d_38">
     <path d="M 616.309375 84.012813 
L 626.309375 84.012813 
L 636.309375 84.012813 
" style="fill: none; stroke: #2ca02c; stroke-width: 1.5; stroke-linecap: square"/>
     <g>
      <use xlink:href="#m5bc44ea442" x="626.309375" y="84.012813" style="fill: #2ca02c; stroke: #2ca02c"/>
     </g>
    </g>
    <g id="text_22">
     <!-- LR=0.002 -->
     <g transform="translate(644.309375 87.512813) scale(0.1 -0.1)">
      <use xlink:href="#DejaVuSans-4c"/>
      <use xlink:href="#DejaVuSans-52" x="55.712891"/>
      <use xlink:href="#DejaVuSans-3d" x="125.195312"/>
      <use xlink:href="#DejaVuSans-30" x="208.984375"/>
      <use xlink:href="#DejaVuSans-2e" x="272.607422"/>
      <use xlink:href="#DejaVuSans-30" x="304.394531"/>
      <use xlink:href="#DejaVuSans-30" x="368.017578"/>
      <use xlink:href="#DejaVuSans-32" x="431.640625"/>
     </g>
    </g>
    <g id="line2d_39">
     <path d="M 616.309375 98.690938 
L 626.309375 98.690938 
L 636.309375 98.690938 
" style="fill: none; stroke: #d62728; stroke-width: 1.5; stroke-linecap: square"/>
     <g>
      <use xlink:href="#m7b647a9d0e" x="626.309375" y="98.690938" style="fill: #d62728; stroke: #d62728"/>
     </g>
    </g>
    <g id="text_23">
     <!-- LR=0.01 -->
     <g transform="translate(644.309375 102.190938) scale(0.1 -0.1)">
      <use xlink:href="#DejaVuSans-4c"/>
      <use xlink:href="#DejaVuSans-52" x="55.712891"/>
      <use xlink:href="#DejaVuSans-3d" x="125.195312"/>
      <use xlink:href="#DejaVuSans-30" x="208.984375"/>
      <use xlink:href="#DejaVuSans-2e" x="272.607422"/>
      <use xlink:href="#DejaVuSans-30" x="304.394531"/>
      <use xlink:href="#DejaVuSans-31" x="368.017578"/>
     </g>
    </g>
    <g id="line2d_40">
     <path d="M 616.309375 113.369063 
L 626.309375 113.369063 
L 636.309375 113.369063 
" style="fill: none; stroke: #9467bd; stroke-width: 1.5; stroke-linecap: square"/>
     <g>
      <use xlink:href="#mf42b9b3d7d" x="626.309375" y="113.369063" style="fill: #9467bd; stroke: #9467bd"/>
     </g>
    </g>
    <g id="text_24">
     <!-- LR=0.1 -->
     <g transform="translate(644.309375 116.869063) scale(0.1 -0.1)">
      <use xlink:href="#DejaVuSans-4c"/>
      <use xlink:href="#DejaVuSans-52" x="55.712891"/>
      <use xlink:href="#DejaVuSans-3d" x="125.195312"/>
      <use xlink:href="#DejaVuSans-30" x="208.984375"/>
      <use xlink:href="#DejaVuSans-2e" x="272.607422"/>
      <use xlink:href="#DejaVuSans-31" x="304.394531"/>
     </g>
    </g>
   </g>
  </g>
 </g>
 <defs>
  <clipPath id="pbd85835ad8">
   <rect x="47.72" y="26.88" width="661.48" height="363.16"/>
  </clipPath>
 </defs>
</svg>
